<svg width="24" height="24" viewBox="0 0 24 24" fill="none" xmlns="http://www.w3.org/2000/svg">
<circle cx="12" cy="12" r="12" fill="#006241"/>
<path d="M5.89988 14.5072C5.37416 14.5072 5 14.1425 5 13.6689C5 13.4178 5.11367 13.1289 5.36469 12.8542C5.82884 12.3427 7.3681 10.7514 8.12116 9.86095C8.20641 9.76149 8.2443 9.68571 8.2443 9.62414C8.2443 9.54836 8.16852 9.51047 8.08327 9.51047C7.54334 9.52468 6.41613 9.54836 5.90462 9.56257C5.63939 9.57678 5.31733 9.42522 5.3268 8.98475C5.3268 8.68637 5.50204 8.39746 5.8762 8.39746C5.89041 8.39746 5.89041 8.39746 5.89988 8.39746C6.31193 8.41167 7.05078 8.42114 7.75174 8.42114C8.23957 8.42114 8.70371 8.40693 9.0163 8.40693C9.03051 8.40693 9.03998 8.40693 9.05419 8.40693C9.6699 8.40693 9.95407 8.77162 9.95407 9.18367C9.95407 9.45837 9.83093 9.74728 9.60359 9.98409C8.66582 10.9503 7.38705 12.338 6.7003 13.0626C6.66241 13.1147 6.62452 13.1763 6.62452 13.2379C6.62452 13.2994 6.67662 13.361 6.82344 13.361C7.53861 13.361 9.10156 13.3373 9.5657 13.3089C9.57991 13.3089 9.58938 13.3089 9.60359 13.3089C10.0156 13.3089 10.2288 13.5978 10.2288 13.8867C10.2288 14.1851 10.0014 14.5024 9.5657 14.5024C9.41415 14.5024 9.19154 14.5024 8.92632 14.5024C8.22536 14.5024 7.22128 14.5024 6.52032 14.5024C6.2693 14.5024 6.05617 14.5024 5.90462 14.5024H5.89988V14.5072Z" fill="#69DF77"/>
<path d="M12.2362 9.78963C12.2362 9.38705 11.9 9.18813 11.5732 9.18813C11.199 9.18813 10.8864 9.41547 10.8959 9.82752C10.9101 10.1638 10.9101 10.6658 10.9101 11.2294C10.9101 12.3709 10.8959 12.8255 10.8959 13.8675C10.8959 14.2938 11.2227 14.5069 11.559 14.5069C11.8952 14.5069 12.2362 14.2938 12.2362 13.8675C12.2362 13.8533 12.2362 13.8533 12.2362 13.8438C12.222 13.1571 12.2126 13.2329 12.2126 12.3709C12.2126 11.3194 12.2268 10.3296 12.2362 9.81804C12.2362 9.80384 12.2362 9.80384 12.2362 9.78963ZM11.5637 7C11.2132 7 10.6875 7.23681 10.6875 7.85252C10.6875 8.43033 11.0759 8.74292 11.5637 8.74292C12.1036 8.74292 12.4399 8.30719 12.4399 7.85252C12.4399 7.37416 12.0136 7 11.5637 7Z" fill="#69DF77"/>
<path d="M16.329 8.30762C15.6422 8.30762 15.0502 8.55864 14.586 8.96121C14.5718 8.97542 14.5624 8.97542 14.5482 8.97542C14.534 8.97542 14.5245 8.96121 14.5103 8.93753C14.4582 8.56337 14.174 8.35972 13.8851 8.35972C13.5583 8.35972 13.2315 8.59653 13.2315 9.06067C13.2315 10.2495 13.2552 12.6034 13.2552 14.4978C13.2552 15.6014 13.2552 15.4261 13.2173 15.8761V15.9376C13.2173 16.3639 13.5441 16.5865 13.8804 16.5865C14.2687 16.5865 14.534 16.326 14.5197 15.9376C14.5055 15.4261 14.4819 15.3456 14.4819 13.9674C14.4819 13.92 14.4961 13.8916 14.5197 13.8916C14.534 13.8916 14.5576 13.9153 14.5813 13.9295C15.0455 14.3321 15.6328 14.5926 16.3242 14.5926C18.053 14.5926 19.3554 13.2759 19.3554 11.4477C19.3601 9.55798 18.0577 8.30762 16.329 8.30762ZM16.3053 13.4559C15.7985 13.4559 15.3391 13.257 15.0123 12.9017L14.1077 13.0107L14.5529 11.9782C14.5197 11.8124 14.5008 11.6372 14.5008 11.4477C14.5008 10.221 15.3012 9.46799 16.3053 9.46799C17.3094 9.46799 18.1098 10.221 18.1098 11.4477C18.1098 12.6886 17.3046 13.4559 16.3053 13.4559Z" fill="#69DF77"/>
<path d="M9.74846 15.028C9.72478 15.0043 9.69636 14.9901 9.65847 14.9901C9.62058 14.9901 9.59217 15.0043 9.56849 15.028C9.5448 15.0517 9.53533 15.0895 9.53533 15.1369V15.4827H9.01435V15.1369C9.01435 15.0895 9.00488 15.0517 8.9812 15.0232C8.95751 14.9996 8.9291 14.9854 8.89121 14.9854C8.85332 14.9854 8.8249 14.9996 8.80122 15.0232C8.77754 15.0469 8.76807 15.0848 8.76807 15.1322V16.0794C8.76807 16.1268 8.77754 16.1647 8.80122 16.1883C8.8249 16.212 8.85332 16.2262 8.89121 16.2262C8.9291 16.2262 8.95751 16.212 8.9812 16.1883C9.00488 16.1647 9.01435 16.1268 9.01435 16.0747V15.6674H9.54007V16.0747C9.54007 16.122 9.54954 16.1599 9.57322 16.1836C9.5969 16.2073 9.62532 16.2215 9.66321 16.2215C9.7011 16.2215 9.72952 16.2073 9.7532 16.1836C9.77688 16.1599 9.78635 16.122 9.78635 16.0699V15.1227C9.78635 15.0895 9.77214 15.0564 9.74846 15.028Z" fill="#69DF77"/>
<path d="M10.3255 15.3591C10.3066 15.3354 10.2782 15.326 10.245 15.326C10.2119 15.326 10.1834 15.3354 10.1645 15.3591C10.1456 15.3828 10.1313 15.416 10.1313 15.4586V16.098C10.1313 16.1406 10.1408 16.1737 10.1645 16.1974C10.1834 16.2211 10.2119 16.2306 10.245 16.2306C10.2782 16.2306 10.3066 16.2211 10.3255 16.1974C10.3445 16.1737 10.3587 16.1406 10.3587 16.0932V15.4444C10.3539 15.416 10.3445 15.3828 10.3255 15.3591ZM10.3208 15.0323C10.2971 15.0134 10.2734 15.0039 10.245 15.0039C10.2166 15.0039 10.1882 15.0134 10.1645 15.0371C10.1408 15.056 10.1313 15.0844 10.1313 15.1128C10.1313 15.1507 10.1408 15.1744 10.1645 15.1934C10.1882 15.2123 10.2119 15.2218 10.245 15.2218C10.2734 15.2218 10.3019 15.2123 10.3255 15.1934C10.3492 15.1744 10.3587 15.146 10.3587 15.1128C10.3539 15.0749 10.3445 15.0513 10.3208 15.0323Z" fill="#69DF77"/>
<path d="M11.2348 15.3642C11.1922 15.3405 11.1448 15.3311 11.0975 15.3311C11.0501 15.3311 11.0122 15.3405 10.9838 15.3642C10.9554 15.3879 10.9269 15.421 10.8985 15.4684C10.8985 15.421 10.8891 15.3879 10.8701 15.3642C10.8512 15.3405 10.8275 15.3311 10.7896 15.3311C10.7186 15.3311 10.6807 15.3832 10.6807 15.4826V16.1078C10.6807 16.1552 10.6901 16.1883 10.7138 16.212C10.7328 16.2357 10.7612 16.2451 10.7943 16.2451C10.8275 16.2451 10.8559 16.2357 10.8748 16.212C10.8938 16.1883 10.908 16.1552 10.908 16.1078V15.9183C10.908 15.852 10.9127 15.7952 10.9127 15.7478C10.9175 15.7005 10.9269 15.6579 10.9364 15.6247C10.9459 15.5915 10.9648 15.5631 10.9838 15.5489C11.0027 15.53 11.0311 15.5252 11.0643 15.5252C11.088 15.5252 11.1164 15.53 11.1495 15.5394C11.1827 15.5489 11.2016 15.5537 11.2111 15.5537C11.2348 15.5537 11.2537 15.5442 11.2727 15.5252C11.2916 15.5063 11.3011 15.4874 11.3011 15.4589C11.3058 15.4163 11.2822 15.3879 11.2348 15.3642Z" fill="#69DF77"/>
<path d="M12.2075 15.9323C12.1886 15.9323 12.1696 15.937 12.1601 15.9465C12.1317 15.9701 12.108 15.9938 12.0938 16.008C12.0749 16.0222 12.0559 16.0365 12.037 16.0507C12.0181 16.0649 11.9944 16.0743 11.9707 16.0791C11.947 16.0838 11.9233 16.0886 11.8949 16.0886C11.857 16.0886 11.8191 16.0791 11.786 16.0601C11.7528 16.0412 11.7244 16.0128 11.7055 15.9701C11.6865 15.9323 11.677 15.8849 11.677 15.8328H12.1175C12.1743 15.8328 12.2217 15.8233 12.2549 15.8091C12.288 15.7902 12.3022 15.757 12.3022 15.7002C12.3022 15.6386 12.288 15.577 12.2549 15.5202C12.2217 15.4634 12.1791 15.416 12.1128 15.3781C12.0512 15.3402 11.9754 15.3213 11.8854 15.3213C11.8191 15.3213 11.7576 15.3308 11.7007 15.3544C11.6439 15.3781 11.5965 15.4065 11.5634 15.4492C11.5255 15.4871 11.4971 15.5392 11.4781 15.596C11.4592 15.6528 11.4497 15.7144 11.4497 15.7807C11.4497 15.9228 11.4876 16.0317 11.5681 16.117C11.6486 16.2022 11.7623 16.2401 11.9044 16.2401C11.966 16.2401 12.0228 16.2306 12.0701 16.2164C12.1175 16.2022 12.1601 16.1785 12.1933 16.1549C12.2264 16.1312 12.2501 16.1028 12.2643 16.0743C12.2785 16.0459 12.288 16.0222 12.288 16.0033C12.288 15.9796 12.2833 15.9607 12.2691 15.9512C12.2501 15.937 12.2312 15.9323 12.2075 15.9323ZM11.7386 15.5392C11.7765 15.5013 11.8191 15.4823 11.876 15.4823C11.9328 15.4823 11.9802 15.5013 12.0181 15.5392C12.0559 15.577 12.0749 15.6339 12.0796 15.7097H11.6723C11.6818 15.6339 11.7055 15.577 11.7386 15.5392Z" fill="#69DF77"/>
</svg>
