<svg width="34" height="34" viewBox="0 0 34 34" fill="none" xmlns="http://www.w3.org/2000/svg">
<path d="M33.5 16.0834C33.5063 18.5031 32.941 20.8902 31.85 23.0501C30.5565 25.6382 28.5679 27.8152 26.107 29.3371C23.6461 30.8589 20.8101 31.6656 17.9167 31.6667C15.4969 31.673 13.1099 31.1077 10.95 30.0167L0.5 33.5L3.98333 23.0501C2.89237 20.8902 2.32702 18.5031 2.33333 16.0834C2.33445 13.1899 3.14112 10.3539 4.66298 7.89306C6.18485 5.43217 8.3618 3.44359 10.95 2.15005C13.1099 1.05909 15.4969 0.493743 17.9167 0.500052H18.8333C22.6546 0.71087 26.2639 2.32378 28.9701 5.02996C31.6763 7.73614 33.2892 11.3454 33.5 15.1667V16.0834Z" fill="white" stroke="white" stroke-linecap="round" stroke-linejoin="round"/>
</svg>
