<svg width="383" height="240" viewBox="0 0 383 240" fill="none" xmlns="http://www.w3.org/2000/svg">
<g clip-path="url(#clip0)">
<path d="M151.136 191.764H1.54045C1.13204 191.763 0.740479 191.601 0.451686 191.313C0.162894 191.025 0.000452911 190.635 0 190.228V44.8404C0.000452911 44.4333 0.162894 44.0429 0.451686 43.755C0.740479 43.467 1.13204 43.3051 1.54045 43.3047H151.136C151.544 43.3051 151.936 43.467 152.225 43.755C152.513 44.0429 152.676 44.4333 152.676 44.8404V190.228C152.676 190.635 152.513 191.025 152.225 191.313C151.936 191.601 151.544 191.763 151.136 191.764Z" fill="#F0F0F0"/>
<path d="M134.875 56.6148H17.8008C17.3925 56.6154 17.001 56.7774 16.7122 57.0653C16.4235 57.3532 16.261 57.7434 16.2604 58.1506V148.591C16.261 148.998 16.4235 149.389 16.7123 149.676C17.001 149.964 17.3925 150.126 17.8008 150.127H134.875C135.284 150.126 135.675 149.964 135.964 149.676C136.253 149.389 136.415 148.998 136.416 148.591V58.1506C136.415 57.7434 136.253 57.3532 135.964 57.0653C135.675 56.7774 135.284 56.6154 134.875 56.6148Z" fill="white"/>
<path d="M128.2 167.874H24.476C24.2492 167.873 24.0316 167.784 23.8712 167.624C23.7108 167.464 23.6205 167.247 23.6202 167.021V162.243C23.6205 162.016 23.7108 161.799 23.8712 161.64C24.0316 161.48 24.2492 161.39 24.476 161.389H128.2C128.427 161.39 128.644 161.48 128.805 161.64C128.965 161.799 129.056 162.016 129.056 162.243V167.021C129.056 167.247 128.965 167.464 128.805 167.624C128.644 167.784 128.427 167.873 128.2 167.874Z" fill="white"/>
<path d="M92.2561 179.477H24.476C24.2492 179.477 24.0316 179.387 23.8712 179.227C23.7108 179.067 23.6205 178.85 23.6202 178.624V173.846C23.6205 173.62 23.7108 173.403 23.8712 173.243C24.0316 173.083 24.2492 172.993 24.476 172.993H92.2561C92.483 172.993 92.7005 173.083 92.8609 173.243C93.0214 173.403 93.1116 173.62 93.1119 173.846V178.624C93.1116 178.85 93.0213 179.067 92.8609 179.227C92.7005 179.387 92.483 179.477 92.2561 179.477Z" fill="white"/>
<path d="M73.4456 117.899C81.6666 117.899 88.3311 111.255 88.3311 103.059C88.3311 94.8624 81.6666 88.2182 73.4456 88.2182C65.2245 88.2182 58.5601 94.8624 58.5601 103.059C58.5601 111.255 65.2245 117.899 73.4456 117.899Z" fill="#FFB8B8"/>
<path d="M95.2241 150.127H62.2208L63.2991 125.936L63.556 125.667L67.2598 121.766H79.0459L83.4139 125.984L83.7667 126.326L93.0676 135.213L95.2241 150.127Z" fill="#2F55D4"/>
<path d="M67.8962 150.127H42.9272C42.8657 144.666 42.8314 141.397 42.8314 141.397L44.2759 140.52C44.2777 140.518 44.2802 140.517 44.2828 140.516H44.2863L60.1975 130.885L63.5385 125.476L63.5557 125.667L64.5382 137.069C64.5382 137.069 66.1607 142.298 67.8962 150.127Z" fill="#2F2E41"/>
<path d="M109.862 150.127H83.4138C83.8143 134.203 81.6578 125.476 82.767 125.476L83.4138 125.984L91.2085 132.121L101.482 135.878H101.489L108.571 138.469L109.814 138.923V139.506C109.817 140.905 109.824 144.731 109.862 150.127Z" fill="#2F2E41"/>
<path d="M59.3635 107.702C59.3635 107.702 60.6282 105.487 60.3342 98.09C60.0402 90.6927 71.3387 94.8765 80.7799 94.1708C90.221 93.4652 88.2225 106.521 88.2225 106.521C88.2225 106.521 88.9036 105.745 90.3619 99.4437C91.8202 93.1426 88.5091 86.8634 88.5091 86.8634C87.534 80.2422 82.2786 82.3643 82.2786 82.3643C84.8095 83.3466 84.3234 85.4469 84.3234 85.4469C82.181 81.7022 76.9256 83.8243 76.9256 83.8243C69.9164 79.4392 62.8127 85.2138 62.8127 85.2138C54.3452 87.1297 59.311 93.8431 59.311 93.8431C50.7955 98.1334 59.3635 107.702 59.3635 107.702Z" fill="#2F2E41"/>
<path d="M46.2619 150.127H36.0024C36.0824 148.867 36.0846 147.603 36.0092 146.342C35.3964 143.909 44.0162 140.619 44.2763 140.52C44.2781 140.518 44.2805 140.517 44.2831 140.516H44.2866L45.9297 141.397L46.2619 150.127Z" fill="#2F2E41"/>
<path d="M111.714 150.127H100.938L99.5923 136.885L101.102 135.786C101.102 135.786 101.239 135.817 101.482 135.878H101.489C102.697 136.175 106.435 137.158 108.571 138.469C109.047 138.734 109.468 139.086 109.814 139.506C110.026 139.76 110.131 140.085 110.108 140.414C110.054 140.909 110.684 144.554 111.714 150.127Z" fill="#2F2E41"/>
<path d="M381.46 148.459H231.864C231.456 148.459 231.064 148.297 230.775 148.009C230.487 147.721 230.324 147.33 230.324 146.923V1.53578C230.324 1.12861 230.487 0.738241 230.775 0.450324C231.064 0.162406 231.456 0.000452811 231.864 0H381.46C381.868 0.000445195 382.259 0.16239 382.548 0.450309C382.837 0.738228 382.999 1.1286 383 1.53578V146.923C382.999 147.33 382.837 147.721 382.548 148.009C382.259 148.297 381.868 148.459 381.46 148.459Z" fill="#F0F0F0"/>
<path d="M365.2 13.3104H248.125C247.717 13.311 247.325 13.473 247.036 13.7609C246.748 14.0488 246.585 14.4391 246.584 14.8462V105.287C246.585 105.694 246.748 106.084 247.036 106.372C247.325 106.66 247.717 106.822 248.125 106.823H365.2C365.608 106.822 365.999 106.66 366.288 106.372C366.577 106.084 366.739 105.694 366.74 105.287V14.8462C366.739 14.4391 366.577 14.0488 366.288 13.7609C365.999 13.473 365.608 13.311 365.2 13.3104Z" fill="white"/>
<path d="M358.524 124.569H254.8C254.573 124.569 254.356 124.479 254.195 124.319C254.035 124.159 253.944 123.942 253.944 123.716V118.938C253.944 118.712 254.035 118.495 254.195 118.335C254.356 118.175 254.573 118.085 254.8 118.085H358.524C358.751 118.085 358.968 118.175 359.129 118.335C359.289 118.495 359.379 118.712 359.38 118.938V123.716C359.379 123.942 359.289 124.159 359.129 124.319C358.968 124.479 358.751 124.569 358.524 124.569Z" fill="white"/>
<path d="M322.58 136.173H254.8C254.573 136.173 254.356 136.083 254.195 135.923C254.035 135.763 253.944 135.546 253.944 135.32V130.542C253.944 130.315 254.035 130.099 254.195 129.939C254.356 129.779 254.573 129.689 254.8 129.688H322.58C322.807 129.689 323.024 129.779 323.185 129.939C323.345 130.099 323.435 130.315 323.436 130.542V135.32C323.435 135.546 323.345 135.763 323.185 135.923C323.024 136.083 322.807 136.173 322.58 136.173Z" fill="white"/>
<path d="M335.479 106.823C336.139 104.451 336.653 102.406 336.916 100.959C336.998 100.513 337.006 100.057 336.94 99.6078C335.954 92.6148 318.147 86.7038 315.863 85.9734L315.312 79.8849L292.897 77.4788L290.059 85.267L282.015 88.2737C281.723 88.3809 281.446 88.523 281.19 88.6969C280.515 89.1511 279.996 89.8006 279.703 90.5579C279.41 91.3151 279.356 92.1438 279.55 92.9322L282.977 106.823H335.479V106.823Z" fill="#2F55D4"/>
<path d="M289.012 106.823H271.618C272.241 102.952 272.799 99.5293 273.162 97.3519C274.49 89.4273 280.282 88.7515 281.19 88.6969C281.261 88.6901 281.306 88.6901 281.309 88.6901H284.969L289.012 106.823Z" fill="#2F55D4"/>
<path d="M335.479 106.823H339.696C339.323 103.406 338.139 101.106 336.94 99.6078C336.141 98.5545 335.109 97.6986 333.925 97.1062L333.606 96.9697L329.899 106.823H335.479Z" fill="#2F55D4"/>
<path d="M303.229 73.6251C312.143 73.6251 319.369 66.4212 319.369 57.5347C319.369 48.6482 312.143 41.4442 303.229 41.4442C294.316 41.4442 287.09 48.6482 287.09 57.5347C287.09 66.4212 294.316 73.6251 303.229 73.6251Z" fill="#A0616A"/>
<path d="M292.396 49.6955C294.067 51.6668 296.894 52.2228 299.503 52.4488C304.8 52.9121 312.502 52.1608 317.678 50.9695C318.05 54.5392 317.041 58.3886 319.149 61.3256C320.138 57.7702 320.713 54.1132 320.863 50.4267C320.926 48.8457 320.901 47.2101 320.257 45.7588C319.613 44.3075 318.207 43.0754 316.589 43.0627C317.791 42.1535 319.2 41.5534 320.69 41.3154L315.565 38.7479L316.882 37.4009L307.604 36.8349L310.291 35.1332C306.245 34.5793 302.152 34.451 298.079 34.7504C296.188 34.8891 294.212 35.1544 292.68 36.2467C291.148 37.339 290.263 39.5093 291.214 41.1126C290.024 41.3076 288.903 41.8023 287.958 42.5499C287.013 43.2976 286.275 44.2734 285.814 45.385C285.131 47.1112 285.193 49.0284 285.404 50.8678C285.753 53.8096 286.439 56.7019 287.447 59.4883" fill="#2F2E41"/>
<path d="M269.144 240H119.549C119.14 240 118.749 239.838 118.46 239.55C118.171 239.262 118.009 238.871 118.008 238.464V93.0767C118.009 92.6696 118.171 92.2792 118.46 91.9913C118.749 91.7034 119.14 91.5414 119.549 91.541H269.144C269.552 91.5414 269.944 91.7033 270.233 91.9913C270.521 92.2792 270.684 92.6696 270.684 93.0767V238.464C270.684 238.871 270.521 239.262 270.233 239.55C269.944 239.838 269.552 240 269.144 240Z" fill="#E4E4E4"/>
<path d="M252.884 104.851H135.809C135.401 104.852 135.009 105.014 134.72 105.302C134.432 105.59 134.269 105.98 134.269 106.387V196.828C134.269 197.235 134.432 197.625 134.72 197.913C135.009 198.201 135.401 198.363 135.809 198.363H252.884C253.292 198.363 253.683 198.201 253.972 197.913C254.261 197.625 254.423 197.235 254.424 196.828V106.387C254.423 105.98 254.261 105.59 253.972 105.302C253.683 105.014 253.292 104.852 252.884 104.851Z" fill="white"/>
<path d="M246.208 216.11H142.484C142.257 216.11 142.04 216.02 141.879 215.86C141.719 215.7 141.628 215.483 141.628 215.257V210.479C141.628 210.253 141.719 210.036 141.879 209.876C142.04 209.716 142.257 209.626 142.484 209.626H246.208C246.435 209.626 246.652 209.716 246.813 209.876C246.973 210.036 247.063 210.253 247.064 210.479V215.257C247.063 215.483 246.973 215.7 246.813 215.86C246.652 216.02 246.435 216.11 246.208 216.11Z" fill="white"/>
<path d="M210.264 227.714H142.484C142.257 227.713 142.04 227.624 141.879 227.464C141.719 227.304 141.628 227.087 141.628 226.861V222.083C141.628 221.856 141.719 221.639 141.879 221.479C142.04 221.32 142.257 221.23 142.484 221.229H210.264C210.491 221.23 210.708 221.32 210.869 221.479C211.029 221.639 211.12 221.856 211.12 222.083V226.861C211.12 227.087 211.029 227.304 210.869 227.464C210.708 227.624 210.491 227.713 210.264 227.714Z" fill="white"/>
<path d="M205.866 198.363H182.303L183.772 176.392L192.272 178.347L200.539 175.177L200.758 175.095L200.772 175.088C200.775 175.094 200.777 175.101 200.779 175.108C200.909 175.631 203.504 185.988 205.866 198.363Z" fill="#2F55D4"/>
<path d="M220.065 179.978L217.864 198.363H198.006L200.539 175.177L200.563 174.951L200.758 175.095L200.779 175.108L205.677 178.671L220.065 179.978Z" fill="#2F2E41"/>
<path d="M185.788 198.363H168.004L167.748 183.89L180.835 179.562L183.772 176.392C183.772 176.392 184.699 185.93 185.788 198.363Z" fill="#2F2E41"/>
<path d="M228.627 198.363H213.889L214.834 185.193L220.065 179.978C220.065 179.978 224.204 188.633 228.627 198.363Z" fill="#2F2E41"/>
<path d="M172.198 198.363H164.424C164.458 194.145 164.479 191.231 164.479 190.408C164.44 189.137 164.718 187.876 165.289 186.738C165.859 185.6 166.704 184.621 167.748 183.89L171.674 185.193L172.198 198.363Z" fill="#2F2E41"/>
<path d="M170.985 153.774C170.997 150.201 171.94 146.691 173.72 143.589C175.501 140.487 178.058 137.899 181.143 136.078C187.696 132.221 195.603 132.291 202.835 136.269C207.988 139.103 212.18 146.236 212.18 152.168V169.478H170.985V153.774Z" fill="#2F2E41"/>
<path d="M197.903 167.233C205.114 163.303 207.764 154.29 203.822 147.102C199.881 139.913 190.84 137.271 183.63 141.201C176.419 145.13 173.769 154.144 177.711 161.332C181.652 168.521 190.693 171.163 197.903 167.233Z" fill="#FFB8B8"/>
<path d="M175.25 154.357C175.138 154.227 174.874 153.923 176.709 139.844L176.767 139.614H176.933C186.236 135.051 195.675 134.937 204.989 139.271C205.275 139.407 205.522 139.615 205.704 139.874C205.886 140.133 205.997 140.435 206.027 140.75C207.114 153.978 206.852 154.266 206.739 154.389C206.569 154.576 206.361 154.725 206.13 154.827C205.898 154.929 205.648 154.982 205.394 154.982H201.268L201.181 154.827C200.473 153.514 199.695 152.24 198.852 151.009C198.465 152.234 198.147 153.481 197.901 154.742L197.851 154.982H176.624C176.364 154.982 176.106 154.927 175.869 154.819C175.632 154.711 175.421 154.554 175.25 154.357Z" fill="#2F2E41"/>
</g>
<defs>
<clipPath id="clip0">
<rect width="383" height="240" fill="white"/>
</clipPath>
</defs>
</svg>
