<svg width="24" height="24" viewBox="0 0 24 24" fill="none" xmlns="http://www.w3.org/2000/svg">
<g clip-path="url(#clip0_269_46)">
<path d="M0 15.7974C0.0250457 15.716 0.0500913 15.6346 0.0688756 15.5532C0.313071 14.4887 0.907905 13.6873 1.8659 13.1613C1.90973 13.1363 1.95356 13.105 1.99739 13.0736C0.544743 11.3392 1.15836 9.10391 2.64858 8.12713C4.15758 7.13783 6.18628 7.55108 7.1881 9.05382C8.17741 10.5378 7.84555 12.6917 6.0047 13.7749C6.87503 14.6578 7.13175 15.741 7.00652 16.962C7.17558 16.962 7.31333 16.962 7.45108 16.962C7.99583 16.962 8.54683 16.962 9.09157 16.962C10.538 16.9682 11.521 18.2268 11.1704 19.6293C11.1641 19.6669 11.1578 19.7045 11.1453 19.7546C11.7151 19.7546 12.2724 19.7546 12.8484 19.7546C12.7295 19.3413 12.7044 18.9343 12.8109 18.5211C13.0613 17.5944 13.8878 16.962 14.8458 16.9557C15.5283 16.9495 16.2045 16.9557 16.887 16.9557C16.8996 16.9557 16.9183 16.9495 16.9747 16.9369C16.8683 15.7598 17.0999 14.6703 17.989 13.7687C16.9684 13.155 16.3673 12.291 16.2672 11.1201C16.192 10.2372 16.4487 9.43577 17.0248 8.75327C18.1706 7.39455 20.1555 7.18792 21.5518 8.26488C22.9043 9.31054 23.3676 11.4269 21.9963 13.0611C22.059 13.0987 22.1153 13.13 22.1717 13.1676C23.3426 13.8626 23.9812 14.8895 23.9937 16.2607C24.0063 18.5712 24 20.8816 24 23.1984C24 23.7181 23.7245 23.9873 23.2048 23.9873C15.7725 23.9873 8.33394 23.9873 0.901644 23.9936C0.475867 23.9936 0.181581 23.8621 0.00626141 23.4739C0 20.9192 0 18.3583 0 15.7974ZM4.6898 22.5847C4.6898 22.1339 4.68354 21.7081 4.69606 21.2761C4.70232 21.1321 4.64597 21.082 4.51448 21.0319C3.66293 20.7063 3.08062 20.099 2.89277 19.2036C2.79259 18.7152 2.8239 18.1955 2.81764 17.6883C2.81138 17.2688 3.11192 16.9682 3.51265 16.9682C3.91338 16.9682 4.21393 17.2688 4.22019 17.682C4.22645 17.9763 4.22019 18.2769 4.22019 18.5712C4.23272 19.2662 4.72737 19.7734 5.42238 19.7734C6.64962 19.7796 7.87686 19.7796 9.09784 19.7671C9.24185 19.7671 9.40464 19.7107 9.53613 19.6356C9.79911 19.4791 9.89303 19.166 9.81164 18.878C9.71771 18.5649 9.461 18.3708 9.11036 18.3645C8.22124 18.3583 7.33212 18.3645 6.43673 18.3645C5.89825 18.3645 5.63527 18.0953 5.62901 17.5631C5.62275 16.9996 5.6478 16.436 5.57892 15.8788C5.44117 14.7955 4.32038 13.9941 3.24341 14.1694C2.13514 14.351 1.41508 15.19 1.41508 16.3108C1.40882 18.3395 1.41508 20.3745 1.41508 22.4032C1.41508 22.4532 1.42134 22.5096 1.4276 22.566C2.50457 22.5847 3.58153 22.5847 4.6898 22.5847ZM19.3165 22.5722C20.4185 22.5722 21.5017 22.5722 22.5912 22.5722C22.5912 22.5033 22.5912 22.447 22.5912 22.3969C22.5912 20.3745 22.5912 18.352 22.5912 16.3296C22.5912 16.1918 22.5724 16.0478 22.5536 15.9101C22.4033 14.9145 21.508 14.1569 20.4873 14.1506C19.473 14.1506 18.5463 14.9082 18.4273 15.9038C18.3585 16.4611 18.3835 17.0246 18.3773 17.5881C18.371 18.0953 18.1017 18.3708 17.5946 18.3708C16.7055 18.3708 15.8163 18.3708 14.921 18.3708C14.4764 18.3708 14.1445 18.6839 14.1571 19.0846C14.1633 19.4791 14.4889 19.7734 14.921 19.7796C16.1419 19.7859 17.3566 19.7859 18.5776 19.7796C19.2726 19.7734 19.7673 19.2724 19.7798 18.5774C19.7861 18.2831 19.7798 17.9826 19.7798 17.6883C19.7861 17.2688 20.0804 16.9682 20.4811 16.9682C20.8818 16.9682 21.1761 17.2688 21.1824 17.6883C21.1886 17.9951 21.1824 18.2957 21.1824 18.6025C21.1824 19.3789 20.8943 20.0426 20.2995 20.5373C20.0115 20.7752 19.6608 20.9442 19.3102 21.1634C19.3165 21.5892 19.3165 22.0713 19.3165 22.5722ZM17.8951 21.201C13.9567 21.201 10.0308 21.201 6.11114 21.201C6.11114 21.6706 6.11114 22.1277 6.11114 22.5785C10.0496 22.5785 13.963 22.5785 17.8951 22.5785C17.8951 22.1151 17.8951 21.6706 17.8951 21.201ZM6.32403 10.8822C6.33029 9.86154 5.47248 9.00373 4.45187 9.00373C3.43752 9.00373 2.59223 9.84276 2.5797 10.8571C2.56718 11.8777 3.41873 12.7418 4.43934 12.7481C5.45995 12.7543 6.32403 11.9028 6.32403 10.8822ZM19.5544 12.7481C20.575 12.7418 21.4266 11.8777 21.4203 10.8571C21.4078 9.84276 20.5625 8.99747 19.5481 8.99747C18.5275 8.99747 17.6697 9.85528 17.676 10.8759C17.676 11.9028 18.5338 12.7543 19.5544 12.7481Z" fill="black"/>
<path d="M16.0731 0C16.0794 0.00626141 16.0794 0.0187842 16.0857 0.0187842C17.0937 0.413253 17.388 0.845291 17.388 1.92225C17.388 3.03679 17.363 4.15758 17.3943 5.27211C17.4256 6.32403 16.5615 7.10044 15.6599 7.03157C15.6223 7.03157 15.5847 7.03783 15.5096 7.03783C15.5096 7.39473 15.5033 7.75163 15.5096 8.10853C15.5221 8.43413 15.4094 8.6971 15.1026 8.83486C14.8021 8.97887 14.5328 8.89121 14.2824 8.69084C13.65 8.17741 13.0176 7.67649 12.3789 7.16932C12.1284 6.96895 11.8529 6.96895 11.6025 7.16932C10.9701 7.67649 10.3314 8.18367 9.69901 8.69084C9.44855 8.89747 9.17931 8.97887 8.87876 8.83486C8.57822 8.69084 8.46551 8.43413 8.47177 8.10853C8.4843 7.75789 8.47177 7.40725 8.47177 7.05035C8.26515 7.03157 8.07104 7.02531 7.8832 6.98774C7.11305 6.81868 6.59961 6.17375 6.59961 5.39108C6.59961 4.16384 6.59961 2.9366 6.59961 1.70937C6.59961 0.876598 7.03165 0.294286 7.83937 0.0438299C7.86441 0.0375685 7.88946 0.0125228 7.91451 0C10.6382 0 13.3557 0 16.0731 0ZM14.107 6.73102C14.107 6.57449 14.107 6.46804 14.107 6.3616C14.1133 5.91704 14.3951 5.62901 14.8396 5.62901C15.1026 5.62901 15.3719 5.62901 15.6348 5.62901C15.9041 5.62901 15.9792 5.54761 15.9792 5.27837C15.9792 4.10749 15.9792 2.9366 15.9792 1.76572C15.9792 1.49648 15.8978 1.41508 15.6348 1.41508C13.2054 1.41508 10.776 1.41508 8.34654 1.41508C8.09609 1.41508 8.01469 1.49648 8.00843 1.7532C8.00843 2.93034 8.00843 4.11375 8.00843 5.2909C8.00843 5.55387 8.08983 5.62901 8.36533 5.63527C8.64709 5.63527 8.92886 5.62901 9.21062 5.63527C9.5863 5.6478 9.86807 5.93582 9.88685 6.31151C9.89311 6.43673 9.88685 6.56822 9.88685 6.74354C10.1123 6.56822 10.2938 6.42421 10.4754 6.2802C11.471 5.49752 11.064 5.66032 12.3288 5.63527C12.5918 5.62901 12.8109 5.70415 13.0176 5.87321C13.3619 6.14871 13.7188 6.41795 14.107 6.73102Z" fill="black"/>
<path d="M11.9717 4.22034C11.3706 4.22034 10.7695 4.22034 10.1685 4.22034C9.73016 4.22034 9.42335 3.93232 9.41708 3.52532C9.41082 3.10581 9.72389 2.81152 10.1685 2.81152C11.3832 2.81152 12.6041 2.81152 13.8189 2.81152C14.2572 2.81152 14.564 3.09955 14.5702 3.50028C14.5765 3.91979 14.2697 4.21408 13.8189 4.21408C13.2052 4.22034 12.5916 4.22034 11.9717 4.22034Z" fill="black"/>
</g>
<defs>
<clipPath id="clip0_269_46">
<rect width="24" height="24" fill="white"/>
</clipPath>
</defs>
</svg>
