<svg xmlns="http://www.w3.org/2000/svg" viewBox="0 0 387.7783 326.0585"><defs><style>.cls-1{fill:#f5f5f5;}.cls-2,.cls-3{fill:#69df77;}.cls-14,.cls-3{opacity:0.3;}.cls-14,.cls-4,.cls-5{fill:#bdf4c1;}.cls-13,.cls-5{opacity:0.5;}.cls-6,.cls-7{fill:#464746;}.cls-11,.cls-7{opacity:0.2;}.cls-8{fill:#263238;}.cls-9{fill:#4b4c4b;}.cls-10{fill:#ffc3bd;}.cls-12{fill:#ed847e;}.cls-13,.cls-17,.cls-18{fill:#fff;}.cls-15{fill:#7f3e3b;}.cls-16{fill:#407bff;}.cls-17{opacity:0.8;}.cls-19{fill:#630f0f;}.cls-20{fill:#e0e0e0;}</style></defs><g id="Layer_2" data-name="Layer 2"><g id="Shadow"><ellipse id="_Path_" data-name="&lt;Path&gt;" class="cls-1" cx="193.88917" cy="314.7351" rx="193.88917" ry="11.3234"/></g><g id="Character_2" data-name="Character 2"><path class="cls-2" d="M313.7701,309.0313h-1.0716a.931.931,0,0,1-.8486-.87l-6.5849-45.8278h4.9999l4.3609,45.524A.99634.99634,0,0,1,313.7701,309.0313Z"/><path class="cls-3" d="M313.7701,309.0313h-1.0716a.931.931,0,0,1-.8486-.87l-6.5849-45.8278h4.9999l4.3609,45.524A.99634.99634,0,0,1,313.7701,309.0313Z"/><path class="cls-2" d="M327.489,309.0313h-1.0716a.93094.93094,0,0,1-.8485-.87l-6.5849-45.8278h4.9999l4.3608,45.524A.99621.99621,0,0,1,327.489,309.0313Z"/><path class="cls-3" d="M327.489,309.0313h-1.0716a.93094.93094,0,0,1-.8485-.87l-6.5849-45.8278h4.9999l4.3608,45.524A.99621.99621,0,0,1,327.489,309.0313Z"/><path class="cls-2" d="M251.0472,309.0313h1.0716a.93078.93078,0,0,0,.8485-.87l6.585-45.8278h-4.9999l-4.3609,45.524A.99634.99634,0,0,0,251.0472,309.0313Z"/><path class="cls-3" d="M251.0472,309.0313h1.0716a.93078.93078,0,0,0,.8485-.87l6.585-45.8278h-4.9999l-4.3609,45.524A.99634.99634,0,0,0,251.0472,309.0313Z"/><path class="cls-2" d="M237.3283,309.0313h1.0715a.931.931,0,0,0,.8486-.87l6.5849-45.8278h-4.9999l-4.3608,45.524A.99621.99621,0,0,0,237.3283,309.0313Z"/><path class="cls-3" d="M237.3283,309.0313h1.0715a.931.931,0,0,0,.8486-.87l6.5849-45.8278h-4.9999l-4.3608,45.524A.99621.99621,0,0,0,237.3283,309.0313Z"/><path class="cls-4" d="M219.549,208.0095h33.6803c5.9754-20.7515,27.4769-37.1232,49.4962-37.1232H313.665c23.0483,0,37.9224,17.9342,33.2227,40.0567a44.942,44.942,0,0,1-4.2857,11.6731l-5.3116,32.194c-.6855,4.155-4.0007,7.5232-7.4045,7.5232l-101.3746.0003c-3.404,0-6.7189-3.3685-7.4043-7.5235l-6.4804-39.2774C213.9413,211.3777,216.1447,208.0095,219.549,208.0095Z"/><path class="cls-5" d="M219.549,208.0095h33.6803c5.9754-20.7515,27.4769-37.1232,49.4962-37.1232H313.665c23.0483,0,37.9224,17.9342,33.2227,40.0567a44.942,44.942,0,0,1-4.2857,11.6731l-5.3116,32.194c-.6855,4.155-4.0007,7.5232-7.4045,7.5232l-101.3746.0003c-3.404,0-6.7189-3.3685-7.4043-7.5235l-6.4804-39.2774C213.9413,211.3777,216.1447,208.0095,219.549,208.0095Z"/><path class="cls-6" d="M211.117,297.1737l8.342,3.8283a.5844.5844,0,0,1,.3178.7598l-2.6245,6.7856a1.4477,1.4477,0,0,1-1.9057.724c-2.8812-1.3829-4.1902-2.1903-7.8587-3.8739a97.6909,97.6909,0,0,1-11.2197-6.5007c-2.7226-1.9587-.7239-4.698.6351-4.0985,6.0939,2.6879,9.9732,2.9293,12.8254,2.245A2.30183,2.30183,0,0,1,211.117,297.1737Z"/><path class="cls-6" d="M270.265,194.9255s-53.3292.6626-54.1529,21.6844c-1.1839,30.2159-5.6459,80.3848-5.6459,80.3848l8.9928,4.0073s15.7563-50.3446,16.3188-73.9423c14.9622-3.7274,53.5668.0305,58.103-12.2675a40.35966,40.35966,0,0,0,1.7042-19.8667Z"/><path class="cls-7" d="M270.265,194.9255s-53.3292.6626-54.1529,21.6844c-1.1839,30.2159-5.6459,80.3848-5.6459,80.3848l8.9928,4.0073s15.7563-50.3446,16.3188-73.9423c14.9622-3.7274,53.5668.0305,58.103-12.2675a40.35966,40.35966,0,0,0,1.7042-19.8667Z"/><path class="cls-8" d="M281.6147,139.6194c-.4637,1.9404-.9321,3.6909-1.4692,5.5064q-.788,2.69745-1.6524,5.3713c-1.1715,3.5618-2.4602,7.0999-3.9489,10.6011a87.47122,87.47122,0,0,1-5.1404,10.4128,50.69526,50.69526,0,0,1-3.3871,5.1035,29.06719,29.06719,0,0,1-4.6456,4.9073l-.1478.1213a4.02233,4.02233,0,0,1-.3252.2395,7.56571,7.56571,0,0,1-3.3554,1.2039,9.49162,9.49162,0,0,1-2.2766-.0162,14.00818,14.00818,0,0,1-3.063-.7419,31.96435,31.96435,0,0,1-4.4751-2.0352,73.1627,73.1627,0,0,1-7.4275-4.7187c-2.3248-1.6716-4.563-3.4019-6.7373-5.1997-2.1608-1.8294-4.2785-3.6348-6.3403-5.6226a3.05423,3.05423,0,0,1,3.5981-4.8713l.0491.0278c2.3602,1.3084,4.7415,2.6953,7.1293,3.9849,2.3775,1.3161,4.7492,2.6169,7.1229,3.834,2.3561,1.2329,4.7482,2.3767,7.0273,3.3176a21.31594,21.31594,0,0,0,3.1861,1.0669,3.82228,3.82228,0,0,0,.9731.1296c.0681-.0007.0194-.0405-.2137-.0239a3.0957,3.0957,0,0,0-1.4191.5325l-.4726.3606a18.57373,18.57373,0,0,0,2.5892-3.1892,47.50463,47.50463,0,0,0,2.4098-4.0977,94.989,94.989,0,0,0,4.1043-9.2747c1.2317-3.2241,2.3837-6.5229,3.4512-9.861,1.0855-3.305,2.074-6.7745,2.9756-10.0113l.0341-.1223a6.1196,6.1196,0,0,1,11.8471,3.0647Z"/><path class="cls-9" d="M259.9976,301.5142h10.0053a.63719.63719,0,0,1,.6604.6083l.485,7.9161a1.57821,1.57821,0,0,1-1.5588,1.5837c-3.4834-.0601-5.1473-.2649-9.5473-.2649-2.7069,0-8.1665.2812-11.9045.2812-3.6561,0-3.6314-3.6962-2.0472-4.031,7.1034-1.501,9.8587-3.571,12.3733-5.5458A2.50948,2.50948,0,0,1,259.9976,301.5142Z"/><path class="cls-9" d="M284.6382,194.9255s-48.3718,4.0852-47.1819,25.0895c1.303,23.0014,22.5413,81.4992,22.5413,81.4992h9.7819s-8.3727-53.5709-11.3165-76.9911c13.6335,0,45.2549,2.5671,49.791-9.7309a40.35966,40.35966,0,0,0,1.7042-19.8667Z"/><path class="cls-2" d="M231.5667,160.8974a16.36586,16.36586,0,0,0-2.72-3.3382c-1.9782,1.8546-3.0909,7.2637-3.0909,7.2637l2.7355.2472S231.6285,164.0501,231.5667,160.8974Z"/><path class="cls-10" d="M221.5282,156.0371l-3.1105-1.3511a1.81792,1.81792,0,0,0-2.2808.728l-1.4733,2.4408a1.818,1.818,0,0,0,.244,2.1976l4.2704,4.4551,7.1222-.2882a2.27041,2.27041,0,0,0,1.9291-1.2336l.8227-1.6063a2.24122,2.24122,0,0,0-.7097-2.8901C226.0325,156.9622,221.5282,156.0371,221.5282,156.0371Z"/><path class="cls-8" d="M269.8129,137.5638c-1.4279,8.9739-3.2722,28.4334.4965,57.7366l39.6488-.3749c-.2372-20.3039,2.9455-39.3718,6.0519-57.996a5.54466,5.54466,0,0,0-4.7106-6.4116,147.06017,147.06017,0,0,0-34.2295-.0277A8.50862,8.50862,0,0,0,269.8129,137.5638Z"/><path class="cls-8" d="M316.3723,134.398c1.1633,2.8874,2.0996,5.6611,3.0581,8.521.9493,2.8425,1.7832,5.7275,2.5707,8.6413.7567,2.9234,1.4822,5.8719,2.0349,8.9024a72.18541,72.18541,0,0,1,1.2157,9.3752c.0528.8096.0679,1.6487.0779,2.4883l-.0154,1.2817a7.75782,7.75782,0,0,1-.994,3.7447,6.76224,6.76224,0,0,1-1.6637,1.9424,7.11934,7.11934,0,0,1-1.9472,1.1064,8.2261,8.2261,0,0,1-2.937.511,13.40871,13.40871,0,0,1-3.5022-.5476,30.7457,30.7457,0,0,1-4.8452-1.9104c-1.4492-.7144-2.8098-1.4688-4.1406-2.2427a110.14335,110.14335,0,0,1-14.6646-10.4983,3.05119,3.05119,0,0,1,3.2698-5.0942l.0701.0342c5.1714,2.4643,10.4256,4.9873,15.5497,7.1103,1.2779.5273,2.5544,1.0208,3.7948,1.4326a21.1025,21.1025,0,0,0,3.4166.9343,1.72515,1.72515,0,0,0,.8227.0208,1.50873,1.50873,0,0,0-.7952.1348,4.62477,4.62477,0,0,0-.4623.2087,4.75765,4.75765,0,0,0-.5415.3582,4.28535,4.28535,0,0,0-.9666,1.1123,3.61033,3.61033,0,0,0-.5161,1.6377l-.0575-.9046c-.0554-.6164-.1081-1.2346-.1991-1.8757a106.66914,106.66914,0,0,0-3.7329-15.9573c-1.6068-5.3642-3.4449-10.8484-5.318-16.0579l-.0187-.052a6.12051,6.12051,0,0,1,11.4368-4.3576Z"/><path class="cls-10" d="M300.5209,110.4102l-4.7968,3.9781-6.5305,5.4238a21.21,21.21,0,0,1,.4149,2.6382c.3124,3.1527-.3782,6.0531-4.211,7.522a5.07,5.07,0,0,0-3.1635,3.0937c-.5166,1.6761.0935,3.538,5.3556,3.5368,7.7261-.0018,11.7618-3.4367,13.2812-5.1287a1.36148,1.36148,0,0,0,.0649-1.702C297.8752,125.4303,299.2731,115.8309,300.5209,110.4102Z"/><path class="cls-2" d="M287.3999,134.9028a3.0601,3.0601,0,0,1,.6688,1.36,5.52032,5.52032,0,0,1,1.4495-1.36,5.17281,5.17281,0,0,1,2.7714,3.2455,14.65073,14.65073,0,0,1-4.1591-1.5455,7.11392,7.11392,0,0,1-2.7818.8655C285.4105,135.7373,287.3999,134.9028,287.3999,134.9028Z"/><path class="cls-2" d="M289.5182,134.9028a12.11146,12.11146,0,0,1,2.647,5.8305s12.8018-3.199,12.2007-11.5432a12.98737,12.98737,0,0,0-3.549-1.0899S298.0641,133.0994,289.5182,134.9028Z"/><path class="cls-2" d="M287.3999,134.9028a13.40881,13.40881,0,0,0-2.8182,5.8305s-6.566-5.9763-.1697-11.4743a16.76111,16.76111,0,0,1,3.384-.7103S283.5472,131.9973,287.3999,134.9028Z"/><path class="cls-11" d="M289.1936,119.812a21.19137,21.19137,0,0,1,.4149,2.6382c2.4356-.4898,5.69-3.0848,6.0305-5.5734a11.33538,11.33538,0,0,0,.0851-2.4887Z"/><path class="cls-8" d="M282.1844,93.1841c-6.022,4.27-2.6525,14.2874,2.4845,10.4543C289.806,99.8053,287.0925,89.7039,282.1844,93.1841Z"/><path class="cls-10" d="M302.4985,102.104c-1.6675,7.6676-2.253,12.2262-6.7818,15.7251a10.20029,10.20029,0,0,1-16.5021-7.3429c-.5955-7.1379,2.2314-18.4778,10.2976-20.649A10.321,10.321,0,0,1,302.4985,102.104Z"/><path class="cls-8" d="M298.9487,96.4209c-4.251-1.1746-15.2113,1.6153-19.1019-2.5346-4.1727-4.4509,1.9164-6.6145,3.7091-5.0691-2.2718-2.5963-1.4235-5.3782,1.7928-5.1309,2.3454.1803,3.0929,2.7818,3.0929,2.7818s-.3916-4.5469,3.6427-4.2345c3.6642.2837,3.6746,5.2236,3.6746,5.2236s8.7447-2.4727,11.6589,5.8728c5.5018-.1237,5.3782,11.4568-5.6873,15.5782C297.2388,106.6827,297.0323,98.7833,298.9487,96.4209Z"/><path class="cls-8" d="M306.2424,95a1.11325,1.11325,0,0,1-.2002-2.208,1.61685,1.61685,0,0,0,.6436-.8115,2.63567,2.63567,0,0,0,.1211-2.083,1.11306,1.11306,0,1,1,2.0254-.9238,4.90718,4.90718,0,0,1-.2413,4.1748,3.24976,3.24976,0,0,1-2.1503,1.833A1.05562,1.05562,0,0,1,306.2424,95Z"/><path class="cls-10" d="M303.7465,109.2129a6.987,6.987,0,0,1-4.2107,2.608c-2.1677.3819-2.8265-1.6123-1.8682-3.5485.8626-1.7428,3.0299-4.0415,5.0343-3.5445C304.6767,105.2176,305.0331,107.5243,303.7465,109.2129Z"/><path class="cls-8" d="M289.3669,102.8053c-.0969.6289-.5102,1.0989-.923,1.0499-.4129-.0491-.6689-.5987-.5719-1.2277.097-.6289.5103-1.099.9231-1.0499S289.4639,102.1763,289.3669,102.8053Z"/><path class="cls-8" d="M282.2285,101.9566c-.0969.6289-.5102,1.099-.923,1.0499-.4129-.0491-.6689-.5987-.5719-1.2277.097-.6289.5103-1.099.9231-1.0499S282.3255,101.3276,282.2285,101.9566Z"/><path class="cls-12" d="M284.404,102.2095a20.25666,20.25666,0,0,1-2.9813,4.4841,3.07828,3.07828,0,0,0,2.5416.6166Z"/><path class="cls-8" d="M286.8858,110.5421a5.47644,5.47644,0,0,0,3.9698-1.6349.18658.18658,0,1,0-.2805-.2461,5.23762,5.23762,0,0,1-4.3852,1.4655.18668.18668,0,1,0-.0436.3708A6.20754,6.20754,0,0,0,286.8858,110.5421Z"/><path class="cls-8" d="M292.2367,99.1789a.37329.37329,0,0,0,.197-.6125,3.58656,3.58656,0,0,0-3.1392-1.2353.368.368,0,0,0-.3041.4316.37322.37322,0,0,0,.4311.3042,2.843,2.843,0,0,1,2.4539.996A.37375.37375,0,0,0,292.2367,99.1789Z"/><path class="cls-8" d="M279.6799,98.7688a.37317.37317,0,0,0,.342-.0717,3.12869,3.12869,0,0,1,2.6621-.7232.37341.37341,0,0,0,.2037-.7185l-.002-.0005a3.85492,3.85492,0,0,0-3.341.8679.37341.37341,0,0,0,.1352.646Z"/><path class="cls-10" d="M292.6968,155.4383l-4.3756-2.72a2.77459,2.77459,0,0,0-3.8401.9225l-.5153.8537a2.77443,2.77443,0,0,0,.2833,3.2562l3.0198,3.4667s2.628,6.1279,5.6754,4.5101l2.3241-4.0266Z"/><path class="cls-2" d="M297.2048,163.2729a18.47018,18.47018,0,0,0-2.2875-4.0773c-2.1975,1.8832-3.9779,7.8858-3.9779,7.8858l2.6882.5794A5.004,5.004,0,0,0,297.2048,163.2729Z"/><path class="cls-4" d="M330.7196,208.0093h-51.917c-3.4042,0-5.6075,3.3683-4.9224,7.5234l6.4803,39.2774c.6855,4.1551,4.0004,7.5234,7.4044,7.5234l36.5266-.0003Z"/><path class="cls-13" d="M330.7196,208.0093h-51.917c-3.4042,0-5.6075,3.3683-4.9224,7.5234l6.4803,39.2774c.6855,4.1551,4.0004,7.5234,7.4044,7.5234l36.5266-.0003Z"/></g><g id="Table"><path class="cls-4" d="M91.1721,312.3998h1.4983a1.01349,1.01349,0,0,0,.9707-.9864l8.2509-123.8878H95.6949L90.2,311.2847A1.0266,1.0266,0,0,0,91.1721,312.3998Z"/><path class="cls-14" d="M91.1721,312.3998h1.4983a1.01349,1.01349,0,0,0,.9707-.9864l8.2509-123.8878H95.6949L90.2,311.2847A1.0266,1.0266,0,0,0,91.1721,312.3998Z"/><path class="cls-4" d="M74.1682,312.3998h1.4983a1.01349,1.01349,0,0,0,.9707-.9864l8.2509-123.8878H78.691L73.1961,311.2847A1.0266,1.0266,0,0,0,74.1682,312.3998Z"/><path class="cls-14" d="M74.1682,312.3998h1.4983a1.01349,1.01349,0,0,0,.9707-.9864l8.2509-123.8878H78.691L73.1961,311.2847A1.0266,1.0266,0,0,0,74.1682,312.3998Z"/><path class="cls-4" d="M283.8153,312.3998H282.317a1.01349,1.01349,0,0,1-.9707-.9864l-8.2509-123.8878h6.1971l5.4949,123.7591A1.02654,1.02654,0,0,1,283.8153,312.3998Z"/><path class="cls-14" d="M283.8153,312.3998H282.317a1.01349,1.01349,0,0,1-.9707-.9864l-8.2509-123.8878h6.1971l5.4949,123.7591A1.02654,1.02654,0,0,1,283.8153,312.3998Z"/><path class="cls-4" d="M300.8192,312.3998h-1.4983a1.01349,1.01349,0,0,1-.9707-.9864l-8.2509-123.8878h6.1971l5.4949,123.7591A1.02654,1.02654,0,0,1,300.8192,312.3998Z"/><path class="cls-14" d="M300.8192,312.3998h-1.4983a1.01349,1.01349,0,0,1-.9707-.9864l-8.2509-123.8878h6.1971l5.4949,123.7591A1.02654,1.02654,0,0,1,300.8192,312.3998Z"/><rect class="cls-2" x="66.6675" y="184.9781" width="241.3019" height="2.5475"/></g><g id="Character_1" data-name="Character 1"><path class="cls-15" d="M62.6474,145.5161l-2.2783,16.7691c-.7192,5.5842-1.4704,11.1816-2.0085,16.6792-.0757.6914-.1255,1.3662-.1815,2.0452l-.0835,1.0183a2.17808,2.17808,0,0,0-.0351-.4998,2.11826,2.11826,0,0,0-.1157-.4758,1.94083,1.94083,0,0,0-.15-.3501,1.40688,1.40688,0,0,0-.1392-.2256c-.1767-.2275-.1961-.1965-.1491-.148a2.10462,2.10462,0,0,0,.3405.2847,10.09388,10.09388,0,0,0,1.3245.7749,53.05106,53.05106,0,0,0,7.3428,2.7251c5.247,1.5916,10.7522,2.9695,16.1902,4.3101l-.6148,4.7768a120.90708,120.90708,0,0,1-17.3418-1.7951,50.01133,50.01133,0,0,1-8.9116-2.3526,18.88057,18.88057,0,0,1-2.47-1.1584,10.63494,10.63494,0,0,1-1.3959-.9468,7.63116,7.63116,0,0,1-1.5959-1.7017,6.47337,6.47337,0,0,1-.7556-1.53,7.056,7.056,0,0,1-.2372-.9944,7.57128,7.57128,0,0,1-.0586-1.0315l.0247-1.1101c.0171-.7397.0293-1.4844.0653-2.2095.2369-5.8427.7616-11.5439,1.3852-17.2448.609-5.7012,1.3362-11.3501,2.2305-17.0279Z"/><path class="cls-15" d="M95.2963,193.4661l-3.667,3.3509a2.838,2.838,0,0,1-3.1457.4621l-4.0532-1.9514s-6.0102-.2483-6.8672-3.9199l1.5538-2.8528,9.3104-1.0346a4.34384,4.34384,0,0,1,2.7432.6098l3.8373,2.3432A1.88025,1.88025,0,0,1,95.2963,193.4661Z"/><path class="cls-15" d="M73.3385,111.0611c.951,5.7519,1.7582,16.2628-2.3562,19.9596,0,0,10.0425,5.2581,16.6274,14.4353,7.0432-5.5796,1.1453-13.9061,1.1453-13.9061-6.3315-1.7125-6.0262-6.4387-4.7833-10.8489Z"/><path class="cls-16" d="M92.1323,135.0872s-.5302-4.8769-3.192-7.2883c-2.2361-2.0257-13.971-.9001-17.6673-.4882a2.01974,2.01974,0,0,0-1.5991,1.1399l-2.6811,5.6001Z"/><path class="cls-17" d="M92.1323,135.0872s-.5302-4.8769-3.192-7.2883c-2.2361-2.0257-13.971-.9001-17.6673-.4882a2.01974,2.01974,0,0,0-1.5991,1.1399l-2.6811,5.6001Z"/><path class="cls-2" d="M59.6193,132.5189c-7.2413,2.3563-8.7968,12.0641-8.1454,19.6204l14.6149,8.9899s3.5486-11.0336,3.5189-16.9251C69.576,137.9335,64.5357,130.9192,59.6193,132.5189Z"/><path class="cls-18" d="M62.4485,158.9268a1.39783,1.39783,0,0,1-.96-.3897,1.55178,1.55178,0,0,1-.1601-.2099.93786.93786,0,0,1-.1299-.2403,2.01629,2.01629,0,0,1-.0801-.25,1.17856,1.17856,0,0,1-.0293-.2597,1.37016,1.37016,0,0,1,.3994-.96,1.39443,1.39443,0,0,1,1.9199,0,1.37111,1.37111,0,0,1,.4004.96,1.11747,1.11747,0,0,1-.0303.2597,1.023,1.023,0,0,1-.08.25.86689.86689,0,0,1-.1201.2403c-.0499.0693-.1094.1396-.17.2099A1.361,1.361,0,0,1,62.4485,158.9268Z"/><path class="cls-18" d="M59.6389,158.0069h.0098a1.36472,1.36472,0,0,1-.8702-1.2198h0a1.33707,1.33707,0,0,1-1.4697.2198h0a1.36858,1.36858,0,0,1-.79-1.2598h0a1.33147,1.33147,0,0,1-1.4805.1299h0a1.35157,1.35157,0,0,1-.7099-1.2998h0a1.36271,1.36271,0,0,1-1.4893.0498h0a1.359,1.359,0,0,1-.46-1.8604h0a1.36469,1.36469,0,0,1,1.8692-.4599h0a1.39532,1.39532,0,0,1,.6504,1.2705h0a1.34322,1.34322,0,0,1,1.4199-.0899h0a1.37017,1.37017,0,0,1,.7197,1.2295h0a1.35226,1.35226,0,0,1,1.4102-.1699h0a1.36034,1.36034,0,0,1,.79,1.1797h0a1.38574,1.38574,0,0,1,1.4004-.25h0a1.36168,1.36168,0,0,1,.7598,1.7607h0a1.34608,1.34608,0,0,1-1.2598.8594h0A1.4795,1.4795,0,0,1,59.6389,158.0069Z"/><path class="cls-18" d="M51.4787,153.4971a1.22324,1.22324,0,0,1-.2705-.0303,1.02164,1.02164,0,0,1-.25-.0801.89828.89828,0,0,1-.2392-.1201,1.519,1.519,0,0,1-.2002-.1699,1.023,1.023,0,0,1-.1699-.2002c-.0498-.0801-.0899-.1592-.1299-.2392a2.24191,2.24191,0,0,1-.0801-.25,2.53343,2.53343,0,0,1-.0205-.2706,2.14826,2.14826,0,0,1,.0205-.2597,2.389,2.389,0,0,1,.0801-.2598,1.03575,1.03575,0,0,1,.1299-.2305,1.52656,1.52656,0,0,1,.1699-.2099,1.59914,1.59914,0,0,1,.2002-.1699,1.33135,1.33135,0,0,1,.2392-.1202,1.885,1.885,0,0,1,.25-.08,1.39767,1.39767,0,0,1,1.2207.3701,1.59768,1.59768,0,0,1,.17.2099,1.75632,1.75632,0,0,1,.1298.2305,1.28644,1.28644,0,0,1,.0704.2598,1.11587,1.11587,0,0,1,.0293.2597,1.28441,1.28441,0,0,1-.0293.2706,1.2029,1.2029,0,0,1-.0704.25c-.04.08-.08.1591-.1298.2392a1.05548,1.05548,0,0,1-.17.2002A1.36744,1.36744,0,0,1,51.4787,153.4971Z"/><path class="cls-2" d="M105.6569,146.6276c-.6119,8.317-2.4625,22.3241-7.0205,45.9027l-39.1397-1.1641c1.0267-14.4477-.5234-25.2206-4.0642-50.5068a8.22032,8.22032,0,0,1,7.308-9.3129c2.5132-.2589,5.3672-.4728,8.2418-.5258a124.57185,124.57185,0,0,1,17.7727.5292c1.9074.2315,3.877.5323,5.758.8532A13.43116,13.43116,0,0,1,105.6569,146.6276Z"/><path class="cls-8" d="M93.5893,100.4731c.0925.7721.5767,1.349,1.0814,1.2885s.8389-.7354.7463-1.5076c-.0925-.7721-.5767-1.349-1.0814-1.2885S93.4968,99.7009,93.5893,100.4731Z"/><path class="cls-8" d="M94.1178,99.035l1.7905-.7568S95.1304,99.8407,94.1178,99.035Z"/><path class="cls-19" d="M93.8557,101.6706a20.77415,20.77415,0,0,0,3.3431,4.5981,3.34474,3.34474,0,0,1-2.6906.8464Z"/><path class="cls-8" d="M93.6833,93.7027a.45667.45667,0,0,0-.5748-.6676,4.53255,4.53255,0,0,0-2.6009,3.2576.45668.45668,0,0,0,.9048.1247h0a3.61836,3.61836,0,0,1,2.0878-2.5571A.454.454,0,0,0,93.6833,93.7027Z"/><path class="cls-15" d="M66.9538,100.2975c1.7188,9.4131,2.2453,13.434,7.618,17.7273,8.0817,6.4579,19.2675,2.2882,20.3957-7.4487,1.0155-8.7641-1.9658-22.6852-11.7003-25.3466A13.05073,13.05073,0,0,0,66.9538,100.2975Z"/><path class="cls-8" d="M87.6842,102.9329c1.5868,5.1719,5.3678,17.6773-2.9847,20.4615-6.5342,2.178-26.9916,3.9199-29.3475-8.0669-2.436-12.3946,8.6156-21.2159,8.6156-21.2159s-8.7557-7.1815-3.1461-15.0044c7.2307-10.0836,24.5426-4.3817,29.6819,2.7427C95.499,88.7752,87.6842,102.9329,87.6842,102.9329Z"/><path class="cls-8" d="M71.8498,125.1143a29.14937,29.14937,0,0,1-10.9267-2.1563c-4.6465-2.0009-7.3584-5.0927-7.8418-8.9414-1.6416-13.0713,10.5215-20.2539,10.6445-20.3242l.4844.8379c-.1172.0684-11.7295,6.9404-10.168,19.3652.5537,4.4082,4.2559,6.878,7.2637,8.1729,5.9385,2.5566,13.6094,2.543,15.4707,1.1777l.5723.7813C76.3801,124.7373,74.3371,125.1143,71.8498,125.1143Z"/><path class="cls-2" d="M60.2025,92.2351c-.1099,1.6717-1.4974,3.9686,4.2996,4.8325,5.7971.8639,13.8513.7818,15.5037-.6125,1.6524-1.3944,3.2816-4.7284-.175-4.4303C76.3741,92.3228,60.3903,89.3768,60.2025,92.2351Z"/><path class="cls-15" d="M84.5211,104.4084a7.5047,7.5047,0,0,0,4.4378,3.6251c2.5247.7394,3.8196-1.5109,3.1453-3.9107-.607-2.16-2.652-5.1476-5.1992-4.8342C84.3955,99.5974,83.388,102.2549,84.5211,104.4084Z"/><polygon class="cls-15" points="145.53 302.056 154.81 301.88 150.317 278.715 141.037 278.891 145.53 302.056"/><path class="cls-15" d="M152.4886,291.9701c2.4552,9.2448,11.4765,19.032,11.4765,19.032l-12.8773-3.2716-5.6279-7.9973.9852-2.1165Z"/><path class="cls-8" d="M143.3438,296.2668a18.86054,18.86054,0,0,0,.1869,3.2353c.5434,3.8237,2.2309,13.9611,2.2309,13.9611l.8744.0057a90.6943,90.6943,0,0,1-.7082-9.3393c.12-2.515,1.743,1.9316,3.7032,4.4475,1.9603,2.5158,5.4885,4.8057,11.1982,4.9843,6.6846.2091,9.3485-.0715,7.2064-1.7406-2.1421-1.669-6.6971-2.7579-6.6971-2.7579a20.32121,20.32121,0,0,1-9.0182-7.5412,23.5278,23.5278,0,0,0-8.2958-7.1774C143.4877,294.439,143.3751,295.4507,143.3438,296.2668Z"/><polygon class="cls-15" points="178.396 270.588 190.242 270.954 176.993 251.256 168.79 258.267 178.396 270.588"/><path class="cls-15" d="M181.2089,262.2237c8.6061,4.009,22.3915,3.2201,22.3915,3.2201l-11.205,8.9898-9.6086-.712-1.0148-2.1348Z"/><path class="cls-8" d="M179.3872,272.4385a18.78014,18.78014,0,0,0,2.4908,2.0666c3.143,2.1887,11.6281,7.7972,11.6281,7.7972l.5442-.6839a89.85375,89.85375,0,0,1-7.2945-5.8328c-1.7724-1.815,2.4946-.0494,5.5523.1301,3.0576.1795,6.9177-1.029,10.5746-5.3978,4.2813-5.1149,5.7203-7.4021,3.1721-6.8592-2.5482.543-6.1606,3.3808-6.1606,3.3808a18.02482,18.02482,0,0,1-11.1057,1.9338,20.79545,20.79545,0,0,0-10.3926,1.6145C178.134,271.0748,178.8073,271.8556,179.3872,272.4385Z"/><path class="cls-8" d="M84.9864,191.8481s63.3648-9.3734,69.9249,6.8692c11.4136,28.26,27.5317,60.6412,27.5317,60.6412l-7.7827,6.4379s-27.6274-25.5748-37.4557-53.967c-11.7394,3.7984-49.0889,16.02-62.7687,16.02-14.6106,0-20.5778-12.457-15.3012-33.1422a4.15607,4.15607,0,0,1,4.0542-3.1121C72.3873,191.6403,84.9864,191.8481,84.9864,191.8481Z"/><path class="cls-8" d="M91.0613,200.0993s52.0052-1.5665,52.4441,16.8586c.7259,30.4692,9.3128,74.1291,9.3128,74.1291l-9.4864.8831s-15.5093-34.7295-19.6121-64.4932c-18.5251,1.2023-35.604.3725-49.2838.3725-15.3314,0-16.5978-16.8371-1.6755-36.4825C81.8819,191.3669,91.0613,200.0993,91.0613,200.0993Z"/><path class="cls-18" d="M58.979,189.0519l-1.1051,3.4736c-.145.2677.1687.5545.6211.5679l40.2826,1.1981c.3529.0105.6503-.1536.6792-.3749l.4572-3.4929c.0317-.242-.2681-.4565-.6541-.468l-39.6347-1.1788A.711.711,0,0,0,58.979,189.0519Z"/><path class="cls-8" d="M64.1703,193.642l-1.0615-.0316c-.2114-.0063-.3692-.12-.3507-.2528l.6332-4.537c.0185-.1327.2066-.2362.418-.2299l1.0615.0315c.2114.0063.3692.1201.3507.2529l-.6332,4.5369C64.5698,193.5448,64.3817,193.6483,64.1703,193.642Z"/><path class="cls-8" d="M95.7831,194.5822l-1.0615-.0316c-.2114-.0062-.3692-.12-.3506-.2528l.6331-4.537c.0186-.1327.2067-.2362.4181-.2299l1.0615.0315c.2114.0063.3692.1201.3507.2529l-.6332,4.5369C96.1827,194.485,95.9945,194.5885,95.7831,194.5822Z"/><path class="cls-8" d="M79.9767,194.1121l-1.0615-.0316c-.2114-.0062-.3692-.12-.3507-.2528l.6332-4.537c.0185-.1327.2067-.2362.4181-.2299l1.0615.0315c.2114.0063.3692.1201.3506.2529l-.6332,4.5369C80.3762,194.0149,80.1881,194.1184,79.9767,194.1121Z"/><path class="cls-2" d="M128.2143,150.1059h25.2989a1.21219,1.21219,0,0,1,1.1638,1.5512l-9.4536,32.4479a1.21218,1.21218,0,0,1-1.1637.8731h-25.299a1.21213,1.21213,0,0,1-1.1637-1.5512l9.4535-32.4479A1.21209,1.21209,0,0,1,128.2143,150.1059Z"/><polygon class="cls-20" points="128.681 151.297 153.269 151.881 143.56 182.485 118.971 181.901 128.681 151.297"/><polygon class="cls-18" points="127.908 150.996 152.503 151.098 143.394 181.886 118.798 181.784 127.908 150.996"/><path class="cls-15" d="M105.7322,151.6328c.0494.9754.1421,2.1883.2312,3.2962.0988,1.133.2231,2.2673.3728,3.395.2798,2.2588.6554,4.4946,1.1186,6.6787a48.28066,48.28066,0,0,0,1.7857,6.3062,30.475,30.475,0,0,0,1.2199,2.8752c.2159.4656.4612.896.703,1.3281l.3655.6145c-.0306-.041-.0735-.0432-.04-.0075a4.47081,4.47081,0,0,0,1.5932.9323,19.19318,19.19318,0,0,0,2.881.8616,55.5455,55.5455,0,0,0,6.6868,1.033c4.6191.4499,9.4441.6736,14.1717.7712l.4773,4.7925a90.49132,90.49132,0,0,1-14.9082,1.6848,53.18439,53.18439,0,0,1-7.7957-.3198,27.539,27.539,0,0,1-4.1868-.8464,12.47857,12.47857,0,0,1-4.7835-2.4688,8.54868,8.54868,0,0,1-1.2552-1.3567l-.6438-.8996c-.4027-.594-.802-1.1937-1.15-1.8023a31.49006,31.49006,0,0,1-1.8865-3.7014,48.6407,48.6407,0,0,1-2.5824-7.5637,65.20038,65.20038,0,0,1-1.4882-7.6355q-.24975-1.9164-.4124-3.8401c-.1137-1.3093-.1811-2.5183-.1955-3.9683Z"/><path class="cls-2" d="M102.4418,136.8859c6.2968,5.9287,4.7797,21.3806,4.7797,21.3806l-12.0658,2.1088s-7.4493-11.0781-4.8307-15.7229C93.052,139.8154,99.035,133.6783,102.4418,136.8859Z"/><path class="cls-18" d="M107.219,159.627a1.3889,1.3889,0,0,1-.96-.4004,1.14982,1.14982,0,0,1-.1699-.21,1.54613,1.54613,0,0,1-.1201-.2295,1.839,1.839,0,0,1-.0801-.2607,2.1321,2.1321,0,0,1-.0205-.2598,1.3636,1.3636,0,0,1,.3906-.9599,1.70762,1.70762,0,0,1,.21-.17,1.00776,1.00776,0,0,1,.2295-.1201,1.324,1.324,0,0,1,.2597-.08,1.3866,1.3866,0,0,1,1.2207.3701,1.372,1.372,0,0,1,.3995.9599,1.10993,1.10993,0,0,1-.0293.2598,1.14558,1.14558,0,0,1-.0801.2607,1.00776,1.00776,0,0,1-.1201.2295,1.18907,1.18907,0,0,1-.17.21A1.37267,1.37267,0,0,1,107.219,159.627Z"/><path class="cls-18" d="M96.259,160.3467a1.35675,1.35675,0,0,1,1.2393-1.4697h0a1.33849,1.33849,0,0,1,1.2705.6396h0a1.37941,1.37941,0,0,1,1.0898-.9199h0a1.3787,1.3787,0,0,1,1.3106.5703h0a1.34051,1.34051,0,0,1,1.0293-.9697h0a1.35242,1.35242,0,0,1,1.3398.4893h0a1.36886,1.36886,0,0,1,.9805-1.0401v.0108a1.3488,1.3488,0,0,1,1.6601.9599h0a1.35911,1.35911,0,0,1-.9707,1.6592h0a1.3658,1.3658,0,0,1-1.4091-.4697h0a1.375,1.375,0,0,1-1.0606,1.0498h0a1.3795,1.3795,0,0,1-1.3799-.5596h0a1.3524,1.3524,0,0,1-1.1103.9902h0a1.36566,1.36566,0,0,1-1.3496-.6298h0a1.37067,1.37067,0,0,1-1.17.9199h-.1103A1.36658,1.36658,0,0,1,96.259,160.3467Z"/><path class="cls-18" d="M95.1584,161.7373a1.26859,1.26859,0,0,1-.2695-.0302,1.87052,1.87052,0,0,1-.25-.0801,1.8431,1.8431,0,0,1-.2402-.1201,1.66714,1.66714,0,0,1-.2002-.17.88978.88978,0,0,1-.17-.2099,1.74987,1.74987,0,0,1-.1298-.2305,1.27779,1.27779,0,0,1-.0703-.2598,1.1099,1.1099,0,0,1-.0293-.2597,1.27624,1.27624,0,0,1,.0293-.2705,1.19472,1.19472,0,0,1,.0703-.25c.04-.0801.08-.1592.1298-.2393a1.05915,1.05915,0,0,1,.17-.2002,1.58776,1.58776,0,0,1,.2002-.1699,1.10563,1.10563,0,0,1,.2402-.1201,1.02164,1.02164,0,0,1,.25-.0801,1.33954,1.33954,0,0,1,1.2197.3701,1.023,1.023,0,0,1,.1699.2002c.0499.0801.0899.1592.1299.2393a2.23528,2.23528,0,0,1,.0801.25,2.52962,2.52962,0,0,1,.0205.2705,2.14662,2.14662,0,0,1-.0205.2597,2.38217,2.38217,0,0,1-.0801.2598,1.739,1.739,0,0,1-.1299.2305,1.10382,1.10382,0,0,1-.1699.2099A1.3658,1.3658,0,0,1,95.1584,161.7373Z"/><path class="cls-15" d="M148.0892,174.7155l-4.1753-.2817a4.71126,4.71126,0,0,0-2.9441.7898l-7.6716,5.1532-.0581,3.2483c2.4581,2.8586,7.9015.2992,7.9015.2992l5.0491-.1624a2.02,2.02,0,0,0,1.833-1.3272l1.8272-5.0123A2.01979,2.01979,0,0,0,148.0892,174.7155Z"/><path class="cls-2" d="M61.477,316.9036h1.1326a.98386.98386,0,0,0,.897-.9195l6.9601-48.4394H65.1819l-4.6094,48.1182A1.05309,1.05309,0,0,0,61.477,316.9036Z"/><path class="cls-3" d="M61.477,316.9036h1.1326a.98386.98386,0,0,0,.897-.9195l6.9601-48.4394H65.1819l-4.6094,48.1182A1.05309,1.05309,0,0,0,61.477,316.9036Z"/><path class="cls-2" d="M46.9763,316.9036h1.1326a.98386.98386,0,0,0,.8969-.9195l6.9602-48.4394H50.6812l-4.6094,48.1182A1.05309,1.05309,0,0,0,46.9763,316.9036Z"/><path class="cls-3" d="M46.9763,316.9036h1.1326a.98386.98386,0,0,0,.8969-.9195l6.9602-48.4394H50.6812l-4.6094,48.1182A1.05309,1.05309,0,0,0,46.9763,316.9036Z"/><path class="cls-2" d="M127.7742,316.9036h-1.1326a.98386.98386,0,0,1-.897-.9195l-6.9601-48.4394h5.2848l4.6093,48.1182A1.053,1.053,0,0,1,127.7742,316.9036Z"/><path class="cls-3" d="M127.7742,316.9036h-1.1326a.98386.98386,0,0,1-.897-.9195l-6.9601-48.4394h5.2848l4.6093,48.1182A1.053,1.053,0,0,1,127.7742,316.9036Z"/><path class="cls-2" d="M142.2749,316.9036h-1.1326a.98386.98386,0,0,1-.8969-.9195l-6.9602-48.4394H138.57l4.6094,48.1182A1.05309,1.05309,0,0,1,142.2749,316.9036Z"/><path class="cls-3" d="M142.2749,316.9036h-1.1326a.98386.98386,0,0,1-.8969-.9195l-6.9602-48.4394H138.57l4.6094,48.1182A1.05309,1.05309,0,0,1,142.2749,316.9036Z"/><path class="cls-4" d="M161.0674,210.1249H125.4678c-6.316-21.9339-29.0428-39.2386-52.3168-39.2386H61.5881c-24.3617,0-40.0835,18.9562-35.116,42.3394a47.50268,47.50268,0,0,0,4.53,12.3383l5.6142,34.0286c.7246,4.3918,4.2287,7.9519,7.8265,7.9519l107.1516.0003c3.5979,0,7.1017-3.5604,7.8262-7.9522l6.8497-41.5157C166.9946,213.6851,164.6656,210.1249,161.0674,210.1249Z"/><path class="cls-5" d="M161.0674,210.1249H125.4678c-6.316-21.9339-29.0428-39.2386-52.3168-39.2386H61.5881c-24.3617,0-40.0835,18.9562-35.116,42.3394a47.50268,47.50268,0,0,0,4.53,12.3383l5.6142,34.0286c.7246,4.3918,4.2287,7.9519,7.8265,7.9519l107.1516.0003c3.5979,0,7.1017-3.5604,7.8262-7.9522l6.8497-41.5157C166.9946,213.6851,164.6656,210.1249,161.0674,210.1249Z"/></g><g id="Bubble_Speech" data-name="Bubble Speech"><rect class="cls-2" x="148.2541" y="50.6436" width="8.167" height="1"/><path class="cls-2" d="M118.2112,62.4278h-1v-4.92a6.87255,6.87255,0,0,1,6.8652-6.8642h18.2305v1H124.0764a5.87122,5.87122,0,0,0-5.8652,5.8642Z"/><path class="cls-2" d="M124.0762,54.1431h91.1733a3.365,3.365,0,0,1,3.365,3.365V93.2617a3.3651,3.3651,0,0,1-3.3651,3.3651H124.0763a3.3651,3.3651,0,0,1-3.3651-3.3651V57.5081A3.365,3.365,0,0,1,124.0762,54.1431Z"/><path class="cls-18" d="M210.938,77.6459H128.3877a2.261,2.261,0,0,1-2.2609-2.2609h0a2.26091,2.26091,0,0,1,2.2609-2.2609H210.938a2.26091,2.26091,0,0,1,2.2609,2.2609h0A2.261,2.261,0,0,1,210.938,77.6459Z"/><path class="cls-18" d="M193.2715,87.0355H128.3877a2.26091,2.26091,0,0,1-2.2609-2.2609h0a2.261,2.261,0,0,1,2.2609-2.2609h64.8838a2.261,2.261,0,0,1,2.2609,2.2609h0A2.26091,2.26091,0,0,1,193.2715,87.0355Z"/><path class="cls-18" d="M156.2263,68.2562H128.3877a2.26091,2.26091,0,0,1-2.2609-2.2609h0a2.26091,2.26091,0,0,1,2.2609-2.2609h27.8386a2.26083,2.26083,0,0,1,2.2608,2.2609h0A2.26083,2.26083,0,0,1,156.2263,68.2562Z"/><path class="cls-18" d="M193.1282,68.2562H165.2896a2.26091,2.26091,0,0,1-2.2609-2.2609h0a2.26091,2.26091,0,0,1,2.2609-2.2609h27.8386a2.26091,2.26091,0,0,1,2.2609,2.2609h0A2.26091,2.26091,0,0,1,193.1282,68.2562Z"/><path class="cls-2" d="M126.1268,93.9146v10.8318a2.50842,2.50842,0,0,0,4.0437,1.9837l16.6004-12.8478Z"/><path class="cls-18" d="M266.7018.5004H175.5287a3.36509,3.36509,0,0,0-3.3651,3.3651V39.619a3.365,3.365,0,0,0,3.365,3.365h72.0248l13.0542,10.1033a2.50842,2.50842,0,0,0,4.0437-1.9837V42.984h2.0505a3.36509,3.36509,0,0,0,3.3651-3.3651V3.8655A3.36509,3.36509,0,0,0,266.7018.5004Z"/><path class="cls-2" d="M262.1389,54.1153a2.9909,2.9909,0,0,1-1.8369-.6328l-12.9199-9.9981H175.5285a3.87019,3.87019,0,0,1-3.8652-3.8652V3.8653A3.87021,3.87021,0,0,1,175.5285,0h91.1729a3.87015,3.87015,0,0,1,3.8652,3.8653V39.6192a3.87013,3.87013,0,0,1-3.8652,3.8652h-1.5498v7.6191a3.01688,3.01688,0,0,1-3.0127,3.0118ZM175.5285,1a2.86831,2.86831,0,0,0-2.8652,2.8653V39.6192a2.86829,2.86829,0,0,0,2.8652,2.8652h72.1954l13.1894,10.207a2.00806,2.00806,0,0,0,3.2383-1.5879V42.4844h2.5498a2.86822,2.86822,0,0,0,2.8652-2.8652V3.8653A2.86824,2.86824,0,0,0,266.7014,1Z"/><path class="cls-2" d="M219.1668,24.0031h43.2236a2.261,2.261,0,0,0,2.2609-2.2609h0a2.26091,2.26091,0,0,0-2.2609-2.2609H219.1668a2.26091,2.26091,0,0,0-2.2609,2.2609h0A2.261,2.261,0,0,0,219.1668,24.0031Z"/><path class="cls-2" d="M188.9902,24.0031h21.4002a2.261,2.261,0,0,0,2.2609-2.2609h0a2.26091,2.26091,0,0,0-2.2609-2.2609H188.9902a2.26085,2.26085,0,0,0-2.2609,2.2609h0A2.26091,2.26091,0,0,0,188.9902,24.0031Z"/><path class="cls-2" d="M197.5066,28.871h64.8839a2.2608,2.2608,0,0,1,2.2608,2.2608v.0001a2.2608,2.2608,0,0,1-2.2608,2.2608h-64.884a2.2608,2.2608,0,0,1-2.2608-2.2608v0a2.2609,2.2609,0,0,1,2.2609-2.2609Z" transform="translate(459.897 62.2637) rotate(180)"/><path class="cls-2" d="M179.8401,14.6134h82.5503a2.26091,2.26091,0,0,0,2.2609-2.2609h0a2.261,2.261,0,0,0-2.2609-2.2609H179.8401a2.261,2.261,0,0,0-2.2609,2.2609h0A2.26091,2.26091,0,0,0,179.8401,14.6134Z"/></g></g></svg>