<svg width="454" height="369" viewBox="0 0 454 369" fill="none" xmlns="http://www.w3.org/2000/svg">
<path d="M10.8333 315.404H74.7539L74.7539 191.426H10.8333L10.8333 315.404Z" fill="#E7E7E7"/>
<path d="M27.9869 315.431H10.8945V298.339H45.7816L27.9869 315.431Z" fill="#FAFAFA"/>
<path d="M185.056 315.404H248.977L248.977 191.426H185.056V315.404Z" fill="#E7E7E7"/>
<path d="M10.8958 309.517H199.965L199.965 191.392L10.8958 191.392L10.8958 309.517Z" fill="#FAFAFA"/>
<path d="M182.869 315.431H199.961V298.339H165.074L182.869 315.431Z" fill="#FAFAFA"/>
<path d="M24.1154 264.969H186.727V235.467L24.1154 235.467V264.969Z" fill="#F0F0F0"/>
<path d="M24.1154 300.876H186.727V271.374H24.1154V300.876Z" fill="#F0F0F0"/>
<path d="M55.0258 238.633H155.824C158.75 238.633 161.209 236.292 161.209 233.248V232.896H49.6406V233.248C49.6406 236.174 52.0991 238.633 55.0258 238.633Z" fill="#FAFAFA"/>
<path d="M24.1154 229.176L186.727 229.176V199.674L24.1154 199.674V229.176Z" fill="#F0F0F0"/>
<path d="M55.0258 202.694H155.824C158.75 202.694 161.209 200.353 161.209 197.309V196.958H49.6406V197.309C49.6406 200.353 52.0991 202.694 55.0258 202.694Z" fill="#FAFAFA"/>
<path d="M55.0258 274.458H155.824C158.75 274.458 161.209 272.117 161.209 269.073V268.722H49.6406V269.073C49.6406 272.117 52.0991 274.458 55.0258 274.458Z" fill="#FAFAFA"/>
<path d="M46.7361 187.617H52.3555L52.3555 125.453H46.7361L46.7361 187.617Z" fill="#F5F5F5"/>
<path d="M47.5679 187.648H49.0898L49.0898 125.484H47.5679L47.5679 187.648Z" fill="#FAFAFA"/>
<path d="M49.7857 187.649H50.3711L50.3711 125.485H49.7857L49.7857 187.649Z" fill="#FAFAFA"/>
<path d="M28.9219 191.455H70.2478C70.2478 188.528 67.9064 186.304 65.0967 186.304H34.1901C31.2633 186.304 28.9219 188.528 28.9219 191.455Z" fill="#F0F0F0"/>
<path d="M39.4671 164.063C40.4037 164.063 41.1061 163.36 41.1061 162.424V121.683C41.1061 120.746 40.4037 120.044 39.4671 120.044C38.5306 120.044 37.8281 120.746 37.8281 121.683V162.424C37.9452 163.36 38.6476 164.063 39.4671 164.063Z" fill="#F0F0F0"/>
<path d="M24.5938 140.296H74.4658L68.7294 105.409H30.3302L24.5938 140.296Z" fill="#E1E1E1"/>
<path d="M227 368.231C352.369 368.231 454 362.309 454 355.002C454 347.696 352.369 341.773 227 341.773C101.631 341.773 0 347.696 0 355.002C0 362.309 101.631 368.231 227 368.231Z" fill="#F5F5F5"/>
<path d="M56.2184 104.683L55.0508 104.768L56.6066 126.369L57.7743 126.285L56.2184 104.683Z" fill="#007CFF"/>
<path d="M58.57 137.33L57.4023 137.414L57.9912 145.588L59.1589 145.504L58.57 137.33Z" fill="#007CFF"/>
<path d="M329.661 236.642H79.0128C73.3934 236.642 68.3594 231.959 68.0082 226.34L55.7158 55.2993C55.3645 49.6799 59.5791 44.9971 65.3156 44.9971H316.081C321.7 44.9971 326.734 49.6799 327.086 55.2993L339.378 226.34C339.612 232.076 335.398 236.642 329.661 236.642Z" fill="#007CFF"/>
<path d="M330.599 236.641H79.9503C74.3309 236.641 69.2969 231.958 68.9457 226.339L56.6533 55.2983C56.302 49.6789 60.5165 44.9961 66.253 44.9961H317.018C322.638 44.9961 327.672 49.6789 328.023 55.2983L340.315 226.339C340.667 232.075 336.335 236.641 330.599 236.641Z" fill="#69DF77"/>
<path opacity="0.5" d="M330.599 236.641H79.9503C74.3309 236.641 69.2969 231.958 68.9457 226.339L56.6533 55.2983C56.302 49.6789 60.5165 44.9961 66.253 44.9961H317.018C322.638 44.9961 327.672 49.6789 328.023 55.2983L340.315 226.339C340.667 232.075 336.335 236.641 330.599 236.641Z" fill="#69DF77"/>
<path d="M317.249 50.1484H66.4835C66.2494 50.1484 65.8982 50.1484 65.664 50.1484C59.2251 50.7338 60.5129 60.4507 67.0689 60.4507H318.185C324.624 60.4507 324.507 50.7338 318.068 50.1484C317.834 50.1484 317.483 50.1484 317.249 50.1484Z" fill="#009245"/>
<path d="M73.0432 55.2984C73.1603 56.5862 72.1066 57.6399 70.8188 57.6399C69.5311 57.6399 68.3603 56.5862 68.2433 55.2984C68.1262 54.0107 69.1799 52.957 70.4676 52.957C71.7554 52.957 72.9261 54.0107 73.0432 55.2984Z" fill="#FAFAFA"/>
<path d="M81.1213 55.2984C81.2383 56.5862 80.1847 57.6399 78.897 57.6399C77.6092 57.6399 76.4385 56.5862 76.3214 55.2984C76.2043 54.0107 77.2579 52.957 78.5457 52.957C79.8335 52.957 81.0042 54.0107 81.1213 55.2984Z" fill="#FAFAFA"/>
<path d="M89.0822 55.2984C89.1993 56.5862 88.1457 57.6399 86.8579 57.6399C85.5701 57.6399 84.3994 56.5862 84.2823 55.2984C84.1653 54.0107 85.2189 52.957 86.5067 52.957C87.9116 52.957 88.9651 54.0107 89.0822 55.2984Z" fill="#FAFAFA"/>
<path d="M324.042 219.667H84.1641C82.0568 219.667 80.3007 218.028 80.1837 215.92L69.9985 75.2013C69.8814 73.0941 71.4034 71.4551 73.5106 71.4551H313.388C315.496 71.4551 317.252 73.0941 317.369 75.2013L327.554 215.92C327.671 217.91 326.032 219.667 324.042 219.667Z" fill="white"/>
<path d="M222.889 166.05L219.026 111.846L207.202 104.705H174.656L179.105 166.05H222.889Z" fill="white"/>
<path d="M223.591 166.636H178.519V166.05L174.07 104.12H207.435L219.611 111.496L223.591 166.636ZM179.573 165.465H222.303L218.44 112.198L206.967 105.291H175.241L179.573 165.465Z" fill="#39B54A"/>
<path d="M222.889 166.636H179.104C178.753 166.636 178.519 166.402 178.519 166.168L174.07 104.823C174.07 104.705 174.07 104.471 174.187 104.354C174.304 104.237 174.422 104.12 174.656 104.12H207.201C207.318 104.12 207.435 104.12 207.435 104.237L219.26 111.379C219.377 111.496 219.494 111.613 219.494 111.847L223.357 166.05C223.357 166.168 223.357 166.402 223.24 166.519C223.24 166.519 223.123 166.636 222.889 166.636ZM179.573 165.465H222.303L218.44 112.198L206.967 105.291H175.241L179.573 165.465Z" fill="#007CFF"/>
<path d="M222.888 167.221H179.104C178.518 167.221 178.05 166.752 177.933 166.167L173.484 104.822C173.484 104.471 173.601 104.237 173.836 104.003C174.07 103.768 174.304 103.651 174.655 103.651H207.201C207.435 103.651 207.669 103.651 207.786 103.768L219.61 110.91C219.961 111.144 220.196 111.495 220.196 111.846L224.059 166.05C224.059 166.401 223.942 166.635 223.708 166.87C223.591 167.104 223.239 167.221 222.888 167.221ZM180.157 164.879H221.717L217.971 112.432L206.967 105.759H175.943L180.157 164.879Z" fill="#39B54A"/>
<path d="M219.031 111.845L207.207 104.704L211.539 114.07L219.031 111.845Z" fill="#ECECEC"/>
<path d="M211.186 114.772L205.801 103.182L220.435 111.962L211.186 114.772ZM208.493 106.108L211.771 113.367L217.508 111.611L208.493 106.108Z" fill="#39B54A"/>
<path d="M211.54 114.656C211.306 114.656 211.072 114.539 211.072 114.305L206.74 104.822C206.623 104.588 206.74 104.354 206.857 104.12C207.091 104.003 207.325 103.886 207.559 104.003L219.384 111.144C219.618 111.261 219.735 111.495 219.618 111.729C219.618 111.963 219.384 112.08 219.266 112.198L211.774 114.539C211.657 114.656 211.657 114.656 211.54 114.656ZM208.496 106.11L211.891 113.368L217.745 111.612L208.496 106.11Z" fill="#007CFF"/>
<path d="M211.538 115.239C211.07 115.239 210.719 115.005 210.485 114.537L206.153 105.054C205.919 104.586 206.036 104.001 206.387 103.767C206.738 103.415 207.324 103.415 207.792 103.65L219.616 110.791C219.967 111.025 220.202 111.493 220.202 111.962C220.202 112.43 219.85 112.781 219.382 112.898L211.89 115.239C211.772 115.239 211.655 115.239 211.538 115.239ZM209.782 107.63L212.124 112.781L216.221 111.493L209.782 107.63Z" fill="#39B54A"/>
<path d="M193.059 132.333C193.176 133.738 192.122 134.792 190.717 134.792C189.312 134.792 188.142 133.738 188.025 132.333C187.907 130.929 188.961 129.875 190.366 129.875C191.771 129.875 192.942 130.929 193.059 132.333Z" fill="#39B54A"/>
<path d="M209.094 132.333C209.211 133.738 208.157 134.792 206.752 134.792C205.347 134.792 204.177 133.738 204.06 132.333C203.943 130.929 204.996 129.875 206.401 129.875C207.806 129.875 208.977 130.929 209.094 132.333Z" fill="#39B54A"/>
<path d="M213.662 148.371C213.311 148.371 213.077 148.137 213.077 147.903C212.843 143.922 206.521 140.644 199.145 140.644C194.228 140.644 189.897 142.049 187.673 144.391C186.736 145.444 186.268 146.615 186.385 147.786C186.385 148.137 186.151 148.371 185.916 148.371C185.565 148.371 185.331 148.137 185.331 147.903C185.214 146.381 185.799 144.976 186.97 143.688C189.312 141.113 194.111 139.474 199.263 139.474C207.34 139.474 214.013 143.103 214.365 147.786C214.248 148.137 214.013 148.371 213.662 148.371Z" fill="#39B54A"/>
<path d="M183.914 127.301C183.796 127.301 183.679 127.301 183.562 127.184C183.328 126.95 183.328 126.598 183.562 126.364L186.021 123.672C186.255 123.438 186.606 123.438 186.84 123.672C187.074 123.906 187.074 124.257 186.84 124.491L184.382 127.184C184.148 127.301 184.031 127.301 183.914 127.301Z" fill="#39B54A"/>
<path d="M212.485 127.301C212.368 127.301 212.251 127.301 212.134 127.184L209.207 124.491C208.973 124.257 208.973 123.906 209.207 123.672C209.441 123.438 209.792 123.438 210.026 123.672L212.953 126.364C213.187 126.598 213.187 126.95 212.953 127.184C212.836 127.301 212.602 127.301 212.485 127.301Z" fill="#39B54A"/>
<path d="M186.259 183.843H184.62L181.459 178.574V183.726H179.82V175.882H181.459L184.62 181.033V175.882H186.259V183.843Z" fill="#39B54A"/>
<path d="M194.106 180.096C194.106 180.916 193.989 181.501 193.638 182.087C193.404 182.672 192.936 183.14 192.468 183.491C191.999 183.843 191.414 183.96 190.711 183.96C190.009 183.96 189.424 183.843 188.955 183.491C188.487 183.14 188.019 182.672 187.785 182.204C187.551 181.735 187.316 180.916 187.316 180.213V179.745C187.316 178.926 187.434 178.34 187.785 177.755C188.019 177.17 188.487 176.701 188.955 176.35C189.424 175.999 190.009 175.882 190.711 175.882C191.414 175.882 191.999 175.999 192.468 176.35C192.936 176.701 193.404 177.17 193.638 177.755C193.872 178.34 194.106 179.043 194.106 179.745V180.096ZM192.468 179.628C192.468 178.809 192.35 178.223 191.999 177.755C191.648 177.287 191.297 177.17 190.711 177.17C190.126 177.17 189.775 177.404 189.424 177.755C189.072 178.223 188.955 178.809 188.955 179.628V179.979C188.955 180.799 189.072 181.384 189.424 181.852C189.775 182.321 190.126 182.555 190.711 182.555C191.297 182.555 191.648 182.321 191.999 181.969C192.233 181.501 192.468 180.916 192.468 180.096V179.628Z" fill="#39B54A"/>
<path d="M199.721 181.035V183.845H198.082V176.001H201.126C201.711 176.001 202.179 176.118 202.648 176.352C203.116 176.586 203.467 176.82 203.701 177.289C203.936 177.64 204.053 178.108 204.053 178.694C204.053 179.513 203.818 180.098 203.233 180.567C202.648 181.035 201.945 181.269 201.009 181.269H199.721V181.035ZM199.721 179.747H201.126C201.594 179.747 201.828 179.63 202.062 179.396C202.297 179.162 202.414 178.928 202.414 178.577C202.414 178.225 202.297 177.874 202.062 177.64C201.828 177.406 201.477 177.289 201.126 177.289H199.604V179.747H199.721Z" fill="#39B54A"/>
<path d="M211.661 180.096C211.661 180.916 211.544 181.501 211.193 182.087C210.959 182.672 210.491 183.14 210.022 183.491C209.554 183.843 208.969 183.96 208.266 183.96C207.564 183.96 206.978 183.843 206.51 183.491C206.042 183.14 205.574 182.672 205.339 182.204C205.105 181.618 204.871 180.916 204.871 180.213V179.745C204.871 178.926 204.988 178.34 205.339 177.755C205.574 177.17 206.042 176.701 206.51 176.35C206.978 175.999 207.564 175.882 208.266 175.882C208.969 175.882 209.554 175.999 210.022 176.35C210.491 176.701 210.959 177.17 211.193 177.755C211.427 178.34 211.661 179.043 211.661 179.745V180.096ZM210.022 179.628C210.022 178.809 209.905 178.223 209.554 177.755C209.203 177.287 208.852 177.17 208.266 177.17C207.681 177.17 207.33 177.404 206.978 177.755C206.627 178.223 206.51 178.809 206.51 179.628V179.979C206.51 180.799 206.627 181.384 206.978 181.852C207.33 182.321 207.681 182.555 208.266 182.555C208.852 182.555 209.203 182.321 209.554 181.969C209.788 181.501 210.022 180.916 210.022 180.096V179.628Z" fill="#39B54A"/>
<path d="M216.929 181.736C216.929 181.385 216.812 181.151 216.578 181.034C216.344 180.917 215.993 180.683 215.407 180.566C214.822 180.331 214.354 180.214 214.119 179.98C213.183 179.512 212.832 178.809 212.832 177.99C212.832 177.522 212.949 177.17 213.183 176.819C213.417 176.468 213.768 176.234 214.237 176C214.705 175.766 215.173 175.766 215.758 175.766C216.344 175.766 216.812 175.883 217.28 176.117C217.749 176.351 218.1 176.585 218.334 176.936C218.568 177.288 218.685 177.756 218.685 178.224H217.046C217.046 177.873 216.929 177.639 216.695 177.405C216.461 177.17 216.11 177.053 215.758 177.053C215.407 177.053 215.056 177.17 214.822 177.288C214.588 177.405 214.471 177.639 214.471 177.99C214.471 178.224 214.588 178.458 214.822 178.575C215.056 178.692 215.407 178.927 215.993 179.044C216.929 179.278 217.632 179.629 217.983 180.097C218.451 180.566 218.568 181.034 218.568 181.619C218.568 182.322 218.334 182.79 217.749 183.258C217.163 183.726 216.578 183.843 215.641 183.843C215.056 183.843 214.471 183.726 214.002 183.492C213.534 183.258 213.183 183.024 212.832 182.556C212.48 182.087 212.48 181.736 212.48 181.268H214.119C214.119 182.087 214.588 182.556 215.641 182.556C215.993 182.556 216.344 182.439 216.578 182.322C216.812 182.205 216.929 181.97 216.929 181.736Z" fill="#39B54A"/>
<path d="M225.603 177.289H223.144V183.845H221.505V177.289H219.164V176.001H225.603V177.289Z" fill="#39B54A"/>
<path d="M348.402 70.4035C349.456 69.9352 350.744 69.2328 351.797 68.5304C352.968 67.8279 354.139 67.2426 355.31 66.5402C357.651 65.1353 359.875 63.7305 362.1 62.2086C366.548 59.1647 370.646 55.7697 374.392 52.0234C374.86 51.5551 375.329 51.0868 375.797 50.6186L376.499 49.9161L376.851 49.5649L376.968 49.3308C376.851 49.682 376.968 49.5649 376.968 49.2137C377.085 48.9796 377.085 48.3942 377.085 47.9259C377.202 45.8187 376.733 43.126 376.265 40.5505C375.212 35.2823 373.69 29.897 372.051 24.6289L376.616 22.6387C379.426 27.6727 381.885 32.9409 383.758 38.5603C384.694 41.37 385.514 44.2967 385.748 47.8089C385.748 48.7454 385.865 49.682 385.631 50.7356C385.514 51.7893 385.163 53.077 384.226 54.599L383.992 54.8331L383.875 55.0672L383.641 55.3014L383.289 55.7697L382.587 56.5892C382.119 57.1745 381.65 57.7599 381.065 58.3452C377.085 62.7939 372.519 66.7743 367.719 70.2864C365.378 72.0425 362.919 73.6815 360.344 75.2034C359.056 76.0229 357.768 76.7253 356.48 77.4277C355.192 78.1302 353.905 78.8326 352.383 79.535L348.402 70.4035Z" fill="#FFB570"/>
<path d="M337.983 345.637C338.92 345.637 339.856 345.403 340.559 345.286C340.676 345.286 340.676 345.169 340.676 345.051C340.676 344.934 340.676 344.817 340.559 344.817C340.207 344.583 337.281 342.71 336.11 343.178C335.876 343.295 335.759 343.413 335.642 343.881C335.524 344.349 335.642 344.817 335.993 345.169C336.578 345.52 337.281 345.637 337.983 345.637ZM339.973 344.934C338.217 345.286 336.929 345.169 336.461 344.817C336.227 344.583 336.227 344.349 336.227 343.998C336.227 343.764 336.344 343.764 336.461 343.647C337.046 343.295 338.685 344.232 339.973 344.934Z" fill="#69DF77"/>
<path d="M340.562 345.287C340.796 345.169 340.796 345.17 340.796 345.052C340.796 344.935 340.796 342.126 339.742 341.189C339.508 340.955 339.157 340.838 338.806 340.838C338.22 340.955 338.103 341.306 337.986 341.54C337.752 342.594 339.508 344.701 340.562 345.287C340.445 345.287 340.445 345.287 340.562 345.287ZM338.806 341.306C339.04 341.306 339.157 341.423 339.274 341.54C339.859 342.126 340.093 343.648 340.21 344.584C339.274 343.882 338.22 342.243 338.337 341.54C338.337 341.423 338.454 341.306 338.806 341.306Z" fill="#69DF77"/>
<path d="M339.629 41.1377C338.458 46.9912 336.117 58.6983 340.097 62.6787C340.097 62.6787 338.458 68.5322 327.688 68.5322C315.747 68.5322 321.951 62.6787 321.951 62.6787C328.39 61.1568 328.273 56.3569 327.102 51.7911L339.629 41.1377Z" fill="#FFB570"/>
<path d="M319.84 64.9028C317.967 65.1369 319.606 60.337 320.308 59.8688C322.064 58.6981 344.776 57.0591 344.542 59.8688C344.425 61.0395 343.84 63.3809 342.903 64.2004C341.966 64.9028 336.113 62.4443 319.84 64.9028Z" fill="#1A2E35"/>
<path d="M323.47 63.2627C321.948 63.731 322.182 58.9311 322.65 58.3458C323.821 56.9409 342.201 52.2581 342.669 54.9507C342.904 56.1214 343.021 58.3458 342.318 59.2823C341.85 60.2189 336.348 58.697 323.47 63.2627Z" fill="#1A2E35"/>
<path d="M316.684 30.6008C316.567 30.6008 316.45 30.6008 316.332 30.4837C315.045 28.8447 313.289 29.0789 313.289 29.0789C313.054 29.0789 312.82 28.9618 312.82 28.6106C312.82 28.3764 312.937 28.1423 313.289 28.1423C313.406 28.1423 315.513 27.9081 317.152 29.8983C317.269 30.1325 317.269 30.3666 317.035 30.6008C316.918 30.6008 316.801 30.6008 316.684 30.6008Z" fill="#1A2E35"/>
<path d="M314.455 36.3369C314.455 36.3369 313.401 39.849 312.113 41.6051C313.284 42.4246 314.923 41.8392 314.923 41.8392L314.455 36.3369Z" fill="#FF5551"/>
<path d="M315.044 34.9316C315.161 35.7511 314.81 36.4535 314.225 36.4535C313.756 36.4535 313.288 35.8682 313.171 35.1657C313.054 34.3463 313.405 33.6438 313.99 33.6438C314.459 33.5268 314.927 34.1121 315.044 34.9316Z" fill="#1A2E35"/>
<path d="M314.221 33.6434L312.23 33.2921C312.23 33.1751 313.284 34.5799 314.221 33.6434Z" fill="#1A2E35"/>
<path d="M351.92 345.052H342.086L342.905 322.34H352.739L351.92 345.052Z" fill="#FFB570"/>
<path d="M341.384 343.882H352.389C352.74 343.882 353.091 344.116 353.209 344.584L354.496 353.247C354.613 354.184 353.794 355.004 352.974 355.004C349.111 354.886 347.238 354.769 342.438 354.769C339.511 354.769 335.063 355.121 330.965 355.121C326.985 355.121 326.633 351.023 328.39 350.672C336.116 349.033 337.287 346.692 339.862 344.584C340.214 344.116 340.799 343.882 341.384 343.882Z" fill="#1A2E35"/>
<g opacity="0.2">
<path d="M352.74 322.338H342.906L342.555 334.045H352.272L352.74 322.338Z" fill="black"/>
</g>
<path d="M312.933 76.1394C306.846 73.798 301.109 71.2224 295.373 68.1786C289.636 65.2518 283.9 62.0909 278.515 57.8764C277.11 56.8227 275.822 55.652 274.534 54.2472C274.183 53.896 273.832 53.5448 273.598 53.1935C273.246 52.7253 273.012 52.4911 272.544 51.9058C271.724 50.7351 271.139 49.2131 271.022 47.6912C270.905 46.1693 271.139 44.6474 271.607 43.4767C272.076 42.306 272.661 41.2523 273.246 40.4329C274.534 38.6768 275.822 37.5061 277.227 36.3354C279.919 34.111 282.846 32.4721 285.773 30.8331C287.178 30.0136 288.7 29.3111 290.222 28.7258C291.744 28.0234 293.148 27.438 294.787 26.9697L296.895 31.5355C291.744 34.6964 286.475 38.3256 282.612 42.306C281.675 43.2426 280.856 44.2962 280.271 45.2328C279.685 46.1693 279.685 46.8717 279.802 46.7547C279.802 46.7547 279.802 46.7547 279.919 46.8717L280.388 47.34C280.505 47.5742 280.856 47.8083 280.973 47.9254C281.91 48.7449 282.963 49.6814 284.134 50.5009C286.475 52.1399 289.051 53.6618 291.626 55.1838C294.319 56.7057 297.012 58.1105 299.704 59.3983C305.207 62.0909 310.943 64.5494 316.563 66.8908L312.933 76.1394Z" fill="#FFB570"/>
<path d="M299.589 28.2586L301.228 24.7465L293.852 22.1709C293.852 22.1709 291.511 29.0781 294.32 32.239C296.545 32.0048 298.535 30.4829 299.589 28.2586Z" fill="#FFB570"/>
<path d="M301.231 17.1351L295.26 15.4961L293.855 22.1691L301.231 24.7447V17.1351Z" fill="#FFB570"/>
<path d="M377.326 25.0983L378.145 16.9033L370.536 18.6594C370.536 18.6594 370.418 26.3861 374.399 27.5568L377.326 25.0983Z" fill="#FFB570"/>
<path d="M374.511 11.166L369.477 13.5074L370.53 18.6585L378.14 16.9025L374.511 11.166Z" fill="#FFB570"/>
<path d="M341.263 29.5475C341.614 39.2643 341.965 43.3618 337.634 48.8641C331.078 57.0591 319.019 55.4201 315.741 45.9373C312.815 37.5083 312.698 22.9915 321.829 18.1916C330.609 13.5088 340.795 19.8306 341.263 29.5475Z" fill="#FFB570"/>
<path d="M336.941 48.8637C346.541 44.7662 352.746 35.9859 350.17 22.4057C347.594 9.41087 338.814 8.12308 335.185 10.8157C331.556 13.5083 322.541 9.52793 317.039 14.0937C307.673 22.0545 316.571 30.4836 321.136 35.6347C323.946 41.2541 327.575 52.8441 336.941 48.8637Z" fill="#1A2E35"/>
<path d="M332.949 20.0641C336.227 24.7469 342.315 26.0347 346.764 22.9909C351.212 19.947 352.149 13.7423 348.871 9.05943C345.593 4.37661 339.505 3.08883 335.057 6.13267C330.725 9.1765 329.788 15.3813 332.949 20.0641Z" fill="#007738"/>
<path d="M335.529 11.7519C334.124 3.90816 341.617 -2.17951 351.451 0.747254C361.402 3.67402 356.134 12.4543 354.143 19.4786C352.153 26.5028 357.421 33.1758 359.646 27.7906C361.87 22.4053 358.124 20.7663 358.124 20.7663C358.124 20.7663 368.66 23.459 358.826 35.4002C348.992 47.2243 340.212 34.1124 342.553 26.3857C344.544 20.2981 336.817 19.1273 335.529 11.7519Z" fill="#1A2E35"/>
<path d="M325.573 14.6787C321.007 12.3373 313.397 10.3471 309.066 17.7225C306.958 21.2347 307.778 25.9175 307.778 25.9175L321.124 26.854L325.573 14.6787Z" fill="#1A2E35"/>
<path d="M306.147 23.6938C305.913 23.6938 305.796 23.5767 305.913 23.3426C305.913 23.1084 306.264 18.4256 309.074 15.4989C315.981 8.35755 323.942 14.3281 326.283 16.3184C326.401 16.4354 326.401 16.5525 326.283 16.7866C326.166 16.9037 326.049 16.9037 325.815 16.7866C323.591 14.9135 315.864 9.17705 309.425 15.9672C306.733 18.7768 306.381 23.4597 306.381 23.4597C306.498 23.5767 306.381 23.6938 306.147 23.6938Z" fill="#1A2E35"/>
<path d="M322.884 35.1654C322.884 37.0386 322.064 38.9117 320.893 40.1995C319.254 42.0726 317.381 41.136 317.03 39.0288C316.679 37.1556 317.03 33.8776 319.02 32.7069C321.01 31.6533 322.884 33.0582 322.884 35.1654Z" fill="#FFB570"/>
<path d="M320.785 124.257C320.785 124.257 321.37 192.275 327.341 230.206C332.141 260.878 340.921 331.706 340.921 331.706H354.267C354.267 331.706 355.555 263.337 353.097 233.015C347.009 156.334 362.814 142.052 350.053 124.257H320.785Z" fill="#1A2E35"/>
<path opacity="0.1" d="M320.785 124.257C320.785 124.257 321.37 192.275 327.341 230.206C332.141 260.878 340.921 331.706 340.921 331.706H354.267C354.267 331.706 355.555 263.337 353.097 233.015C347.009 156.334 362.814 142.052 350.053 124.257H320.785Z" fill="white"/>
<path opacity="0.3" d="M327.802 155.163C332.485 175.65 328.739 208.079 326.163 222.361C323.471 200.703 322.066 172.723 321.363 152.119C323.822 148.138 326.046 147.904 327.802 155.163Z" fill="black"/>
<path d="M339.047 332.057H356.022L356.959 326.086L338.93 325.384L339.047 332.057Z" fill="#69DF77"/>
<path d="M343.842 66.7761C345.481 63.6152 354.027 61.625 358.71 61.625L362.222 77.3125C362.222 77.3125 352.857 91.2439 348.993 89.722C344.427 87.9659 340.447 73.6833 343.842 66.7761Z" fill="#46C167"/>
<path opacity="0.4" d="M343.842 66.7761C345.481 63.6152 354.027 61.625 358.71 61.625L362.222 77.3125C362.222 77.3125 352.857 91.2439 348.993 89.722C344.427 87.9659 340.447 73.6833 343.842 66.7761Z" fill="#54C372"/>
<path d="M334.008 328.194C334.008 328.077 334.008 328.077 334.008 327.96C334.008 327.843 333.891 327.843 333.774 327.843C333.306 327.96 328.974 328.662 328.389 329.833C328.272 330.067 328.272 330.301 328.389 330.535C328.623 330.887 328.974 331.121 329.442 331.238C330.847 331.355 332.837 329.365 334.008 328.194C334.008 328.194 333.891 328.194 334.008 328.194ZM328.74 329.95C329.091 329.248 331.432 328.662 333.071 328.428C331.549 329.95 330.145 330.887 329.325 330.77C329.091 330.77 328.857 330.652 328.623 330.301C328.74 330.184 328.74 330.184 328.74 329.95C328.74 329.95 328.74 330.067 328.74 329.95Z" fill="#69DF77"/>
<path d="M334.001 328.194C334.001 328.077 334.001 327.96 334.001 327.96C333.884 327.843 332.245 325.852 330.606 325.735C330.138 325.735 329.67 325.852 329.319 326.204C328.85 326.672 328.85 327.023 328.967 327.257C329.436 328.311 332.597 328.662 333.884 328.311C333.884 328.311 333.884 328.194 334.001 328.194ZM329.319 326.672C329.319 326.555 329.436 326.555 329.553 326.438C329.787 326.204 330.138 326.087 330.489 326.087C331.543 326.204 332.714 327.257 333.299 327.843C331.894 327.96 329.67 327.491 329.319 326.906C329.319 326.906 329.319 326.906 329.319 326.672Z" fill="#69DF77"/>
<path d="M344.188 324.096L335.174 328.076L331.193 319.647L326.042 308.76L325.34 307.589L334.354 303.608L335.057 305.013L340.091 315.55L344.188 324.096Z" fill="#FFB570"/>
<path opacity="0.2" d="M340.091 315.55L331.194 319.648L326.043 308.76L335.057 305.014L340.091 315.55Z" fill="black"/>
<path d="M310.248 124.257C310.248 124.257 281.566 195.436 289.409 229.035C296.434 259.356 327.457 316.721 327.457 316.721L339.398 310.75C339.398 310.75 320.199 241.445 318.092 226.46C313.994 197.192 340.101 155.866 340.101 124.374L310.248 124.257Z" fill="#1A2E35"/>
<path opacity="0.1" d="M310.248 124.257C310.248 124.257 281.566 195.436 289.409 229.035C296.434 259.356 327.457 316.721 327.457 316.721L339.398 310.75C339.398 310.75 320.199 241.445 318.092 226.46C313.994 197.192 340.101 155.866 340.101 124.374L310.248 124.257Z" fill="white"/>
<path d="M333.65 326.788L342.548 320.349C342.899 320.115 343.25 320.115 343.601 320.466L349.689 326.788C350.274 327.49 350.157 328.544 349.455 329.129C346.294 331.353 344.655 332.29 340.792 335.1C338.333 336.856 333.533 340.719 330.255 343.178C326.977 345.519 324.402 342.475 325.572 341.187C330.841 335.334 331.894 331.705 332.714 328.427C332.831 327.607 333.182 327.139 333.65 326.788Z" fill="#1A2E35"/>
<path d="M326.63 319.296L342.083 312.155L340.093 305.833L323.469 313.443L326.63 319.296Z" fill="#69DF77"/>
<path d="M317.85 65.9537C316.563 62.6758 305.324 58.9295 299.705 57.7588L297.246 76.256C297.246 76.256 306.378 89.4849 310.475 88.3142C315.158 87.0264 320.543 73.095 317.85 65.9537Z" fill="#46C167"/>
<path opacity="0.4" d="M317.85 65.9537C316.563 62.6758 305.324 58.9295 299.705 57.7588L297.246 76.256C297.246 76.256 306.378 89.4849 310.475 88.3142C315.158 87.0264 320.543 73.095 317.85 65.9537Z" fill="#54C372"/>
<path d="M305.557 65.1353C305.557 65.1353 300.875 66.7743 310.24 124.373C326.045 124.373 342.435 124.373 350.044 124.373C349.342 108.217 349.342 98.1493 357.069 64.9012C357.069 64.9012 348.756 63.0281 340.21 62.6769C333.537 62.3256 328.035 62.0915 322.181 62.6769C314.338 63.2622 305.557 65.1353 305.557 65.1353Z" fill="#8CFF99"/>
<path opacity="0.4" d="M305.557 65.1353C305.557 65.1353 300.875 66.7743 310.24 124.373C326.045 124.373 342.435 124.373 350.044 124.373C349.342 108.217 349.342 98.1493 357.069 64.9012C357.069 64.9012 348.756 63.0281 340.21 62.6769C333.537 62.3256 328.035 62.0915 322.181 62.6769C314.338 63.2622 305.557 65.1353 305.557 65.1353Z" fill="#006837"/>
<path d="M350.618 121.913L352.375 125.425C352.492 125.659 352.14 126.01 351.672 126.01H309.878C309.527 126.01 309.175 125.776 309.175 125.659L308.824 122.147C308.824 121.913 309.058 121.679 309.527 121.679H350.033C350.267 121.679 350.501 121.796 350.618 121.913Z" fill="#007738"/>
<path opacity="0.3" d="M350.618 121.913L352.375 125.425C352.492 125.659 352.14 126.01 351.672 126.01H309.878C309.527 126.01 309.175 125.776 309.175 125.659L308.824 122.147C308.824 121.913 309.058 121.679 309.527 121.679H350.033C350.267 121.679 350.501 121.796 350.618 121.913Z" fill="white"/>
<path d="M345.237 126.481H346.291C346.525 126.481 346.642 126.364 346.642 126.247L346.174 121.564C346.174 121.447 345.94 121.33 345.706 121.33H344.652C344.418 121.33 344.301 121.447 344.301 121.564L344.769 126.247C344.769 126.364 345.003 126.481 345.237 126.481Z" fill="#1A2E35"/>
<path d="M319.019 126.481H320.072C320.306 126.481 320.423 126.364 320.423 126.247L319.955 121.564C319.955 121.447 319.721 121.33 319.487 121.33H318.433C318.199 121.33 318.082 121.447 318.082 121.564L318.55 126.247C318.667 126.364 318.784 126.481 319.019 126.481Z" fill="#1A2E35"/>
</svg>
