<svg width="297" height="336" viewBox="0 0 297 336" fill="none" xmlns="http://www.w3.org/2000/svg">
<g clip-path="url(#clip0_305_170)">
<path d="M83.9831 31.8345C89.823 9.59206 99.6952 0 116.381 0C133.205 0 142.66 9.03599 149.056 31.9735C151.698 31.9735 154.618 31.9735 157.538 31.9735C175.197 31.9735 192.716 31.9735 210.375 31.9735C223.445 31.9735 232.761 41.0095 233.039 54.077C233.317 66.1713 233.178 78.1266 233.039 90.2209C232.9 100.23 226.087 107.042 216.632 107.042C207.038 107.042 200.364 100.369 200.225 90.2209C200.086 82.158 200.225 74.0952 200.225 64.9201C192.16 64.9201 184.652 64.7811 177.143 65.0592C175.753 65.1982 174.084 67.4224 173.25 69.0906C168.94 78.5436 161.709 83.1312 151.281 83.1312C129.729 82.9921 108.177 82.9921 86.625 83.1312C75.7795 83.1312 67.993 78.9607 63.6826 68.6736C62.9874 67.0054 60.4845 65.1982 58.816 65.0592C50.4733 64.6421 42.2697 64.9201 33.3708 64.9201C33.3708 144.298 33.3708 223.12 33.3708 302.775C99.5562 302.775 165.742 302.775 231.649 302.775C237.072 321.959 226.643 336.139 207.872 336.139C146.692 336.139 85.5126 336.139 24.4719 336.139C8.75983 335.861 0 326.964 0 311.255C0 226.456 0 141.796 0 56.9963C0 40.3144 8.3427 31.9735 25.3062 31.9735C42.4087 31.9735 59.6503 31.9735 76.7528 31.9735C79.2556 31.8345 81.7584 31.8345 83.9831 31.8345ZM102.059 31.2784C102.059 39.3413 108.316 45.8751 116.242 45.8751C124.445 45.8751 130.702 39.7584 130.841 31.5565C130.98 23.4936 124.584 16.8209 116.659 16.6818C108.733 16.6818 102.198 23.2156 102.059 31.2784Z" fill="#69DF77"/>
<path d="M297 204.491C296.86 226.734 287.544 247.03 272.806 261.904C266.549 268.16 259.318 273.304 251.393 277.335C240.269 282.896 227.755 285.954 214.685 285.815C203.283 285.676 192.716 283.313 183.4 279.42C175.057 275.945 167.41 271.079 160.875 265.241C142.938 249.115 132.509 225.482 133.205 201.016C133.9 177.522 145.301 155.975 162.821 141.378C169.634 135.678 177.282 131.23 185.625 127.894C194.801 124.279 204.813 122.333 215.241 122.333C227.338 122.333 238.601 124.974 248.89 129.562C257.094 133.176 264.602 138.181 270.998 144.297C287.127 159.033 297.139 180.441 297 204.491Z" fill="#69DF77"/>
<path d="M86.6251 115.104H56.7305V142.212H86.6251V115.104Z" stroke="#69DF77" stroke-width="5" stroke-miterlimit="10"/>
<path d="M86.6251 155.419H56.7305V182.527H86.6251V155.419Z" stroke="#69DF77" stroke-width="5" stroke-miterlimit="10"/>
<path d="M86.6251 195.733H56.7305V222.841H86.6251V195.733Z" stroke="#69DF77" stroke-width="5" stroke-miterlimit="10"/>
<path d="M86.6251 236.048H56.7305V263.156H86.6251V236.048Z" stroke="#69DF77" stroke-width="5" stroke-miterlimit="10"/>
<path d="M256.825 155.106L165.551 245.309L172.882 252.724L264.156 162.521L256.825 155.106Z" fill="white"/>
<path d="M175.023 154.115L167.691 161.53L258.966 251.733L266.297 244.318L175.023 154.115Z" fill="white"/>
</g>
<defs>
<clipPath id="clip0_305_170">
<rect width="297" height="336" fill="white"/>
</clipPath>
</defs>
</svg>
