<svg width="415" height="286" viewBox="0 0 415 286" fill="none" xmlns="http://www.w3.org/2000/svg">
<path d="M403.967 185.469C403.684 208.039 389.424 221.827 366.571 221.827C332.763 221.732 298.861 221.449 265.053 220.599C249.188 220.222 237.856 226.265 229.829 239.958C223.124 251.479 215.475 262.434 207.542 274.899C199.421 262.434 191.488 251.196 184.406 239.297C176.568 226.265 165.519 220.694 150.409 220.977C117.451 221.544 84.3993 221.638 51.4415 221.827C23.2999 221.921 9.22907 205.49 10.8345 177.254C12.1565 155.156 11.0233 132.964 11.0233 110.866C11.0233 85.9351 21.5056 75.4528 46.1531 75.4528C74.578 75.4528 103.003 75.4528 131.522 75.4528C133.883 83.3854 135.489 90.3735 137.849 96.984C148.426 126.07 181.289 146.185 213.775 143.446C252.305 140.141 277.235 111.149 281.768 82.0633C282.713 76.3972 285.168 75.3584 290.173 75.3584C318.031 75.5473 345.889 75.264 373.842 75.5473C392.446 75.7361 404.061 87.4461 404.156 106.239C404.345 132.492 404.345 159.028 403.967 185.469Z" fill="#69DF77"/>
<path d="M131.524 68.4654C128.502 68.4654 125.575 68.4654 122.553 68.4654C96.1111 68.4654 69.5749 68.371 43.1331 68.4654C19.5244 68.5599 4.6037 83.2917 4.6037 106.712C4.50927 132.87 4.50927 159.029 4.6037 185.187C4.69814 210.968 21.5076 227.777 47.4771 227.872C82.2292 227.966 116.887 227.966 151.639 227.494C163.727 227.305 172.226 231.932 178.458 242.131C185.163 253.086 192.246 263.662 199.328 274.334C205.372 283.588 209.339 283.494 215.571 274.05C221.898 264.323 228.698 254.691 234.364 244.492C241.352 231.932 251.173 226.738 265.716 227.211C299.241 228.155 332.859 227.966 366.478 227.966C393.487 227.966 410.107 211.44 410.296 184.432C410.485 158.556 410.485 132.681 410.485 106.712C410.391 83.1029 395.753 68.4654 372.05 68.371C345.608 68.2766 319.072 68.371 292.63 68.371C289.703 68.371 286.775 68.0877 283.753 67.9933C283.564 67.1434 283.47 66.3879 283.281 65.538C284.981 64.9714 286.681 63.9326 288.381 63.9326C317.939 63.8381 347.591 63.366 377.149 64.1214C398.208 64.6881 414.546 81.9696 414.829 103.029C415.112 131.17 415.018 159.406 414.735 187.548C414.546 212.762 395.753 232.027 370.539 232.31C335.22 232.593 299.996 232.404 264.677 231.743C253.156 231.555 245.224 235.332 239.369 245.342C232.758 256.674 225.487 267.534 218.215 278.394C211.699 288.215 203.106 288.121 196.495 278.394C189.035 267.251 181.669 256.108 174.681 244.775C169.298 235.899 162.027 231.932 151.45 232.027C116.981 232.499 82.6069 232.499 48.1382 232.404C18.5801 232.31 0.165261 213.801 0.0708262 184.432C-0.0236087 158.273 -0.0236087 132.209 0.0708262 106.051C0.165261 81.2142 16.8802 64.2159 41.7166 64.027C69.2916 63.8381 96.961 63.9326 124.536 64.027C126.991 64.027 129.447 64.5936 131.902 64.8769C131.808 66.1046 131.619 67.3322 131.524 68.4654Z" fill="#69DF77"/>
<path d="M207.447 0.00021936C245.788 -0.0942155 276.574 30.3138 276.385 68.56C276.196 108.411 246.26 136.081 211.13 137.592C164.952 139.575 138.888 102.273 138.793 68.9377C138.699 30.786 169.201 0.0946543 207.447 0.00021936ZM208.014 4.72196C172.506 4.62753 143.704 33.1469 143.798 68.3711C143.893 102.179 172.318 132.115 204.52 132.209C242.483 132.304 271.38 105.106 271.758 68.9377C272.041 33.8079 243.333 4.91083 208.014 4.72196Z" fill="#69DF77"/>
<path d="M208.013 4.72094C243.332 4.81537 272.04 33.7125 271.662 68.9367C271.379 105.105 242.388 132.302 204.425 132.208C172.222 132.114 143.798 102.178 143.703 68.3701C143.703 33.2403 172.506 4.6265 208.013 4.72094ZM187.521 34.2791C181.855 39.473 177.983 43.0615 171.845 48.6332C179.777 55.2436 187.615 61.7596 197.153 69.6922C188.371 77.3414 180.91 83.8574 173.733 90.1845C178.077 94.8118 181.666 98.6837 187.238 104.822C193.848 96.6061 200.27 88.6736 208.108 78.9468C216.229 88.107 222.934 95.6618 228.6 102.083C233.605 97.6449 237.477 94.2452 243.899 88.4847C235.872 81.6854 228.128 75.0749 219.062 67.4257C227.467 59.9654 234.833 53.4494 242.104 47.0278C237.571 42.4005 233.794 38.7175 228.6 33.3347C221.801 41.0784 215.19 48.6332 207.258 57.6989C199.797 48.822 193.376 41.2672 187.521 34.2791Z" fill="white"/>
<path d="M187.524 34.2803C193.379 41.2685 199.8 48.8233 207.261 57.7001C215.193 48.6344 221.898 41.0796 228.603 33.3359C233.891 38.6243 237.574 42.4017 242.107 47.029C234.836 53.4506 227.47 60.061 219.065 67.4269C228.131 75.0762 235.78 81.6866 243.902 88.4859C237.48 94.152 233.514 97.6461 228.603 102.085C222.937 95.663 216.232 88.1082 208.111 78.948C200.273 88.6748 193.851 96.6073 187.241 104.823C181.574 98.7793 178.08 94.9075 173.736 90.1858C181.008 83.8586 188.374 77.3426 197.156 69.6934C187.618 61.7608 179.875 55.2448 171.848 48.6344C177.986 43.0627 181.858 39.4742 187.524 34.2803Z" fill="#69DF77"/>
</svg>
