<svg xmlns="http://www.w3.org/2000/svg" viewBox="0 0 173.191 142.78539"><defs><style>.cls-1,.cls-2{fill:#69df77;}.cls-1{opacity:0.2;}.cls-3{fill:#fff;}</style></defs><g id="Layer_2" data-name="Layer 2"><g id="Smartphone"><path class="cls-1" d="M161.9953,17.76719H55.0805l-6.792,104.9075H161.9953A11.22859,11.22859,0,0,0,173.191,111.479V28.96289A11.22859,11.22859,0,0,0,161.9953,17.76719Z"/><path class="cls-2" d="M21.0069,8.43749H152.0376a11.1957,11.1957,0,0,1,11.1957,11.1957v82.5161a11.1957,11.1957,0,0,1-11.1957,11.1957H21.0069a11.1956,11.1956,0,0,1-11.1956-11.1956V19.63309A11.1956,11.1956,0,0,1,21.0069,8.43749Z"/><path class="cls-2" d="M6.2373,7.23469a.99666.99666,0,0,1-.7071-.293L3.7373,5.14879a.99988.99988,0,0,1,1.414-1.4141l1.793,1.793a1,1,0,0,1-.707,1.707Z"/><path class="cls-2" d="M3.5351,13.50909H1a1,1,0,0,1,0-2H3.5351a1,1,0,0,1,0,2Z"/><path class="cls-2" d="M12.6015,4.52919a.99985.99985,0,0,1-.9961-.9288l-.1806-2.5288a.99959.99959,0,1,1,1.9941-.1425l.1807,2.5288a.99957.99957,0,0,1-.9258,1.0688C12.6494,4.52819,12.625,4.52919,12.6015,4.52919Z"/><polygon class="cls-2" points="97.718 102.564 137.94 142.785 137.94 102.564 97.718 102.564"/><path class="cls-3" d="M108.7425,84.94069l-1.948-8.4933a15.321,15.321,0,0,1-.0169-6.7725l2.7104-12.0977A23.715,23.715,0,0,0,96.9451,31.273a5.72812,5.72812,0,1,0-11.0303-2.4713,23.715,23.715,0,0,0-22.5671,18.4381l-2.7104,12.0975a15.3217,15.3217,0,0,1-2.905,6.1179l-5.3856,6.8504a5.05149,5.05149,0,0,0,2.8669,8.051l47.5009,10.6423A5.05156,5.05156,0,0,0,108.7425,84.94069Z"/><path class="cls-3" d="M72.8693,87.56379a2.24819,2.24819,0,0,0-2.6978,2.5852,8.21617,8.21617,0,0,0,14.8368,3.3241,2.24808,2.24808,0,0,0-1.3368-3.4891Z"/><path class="cls-3" d="M36.3916,70.71269a1.49791,1.49791,0,0,1-1.2481-.6669,32.07659,32.07659,0,0,1,8.8662-44.4913,1.50013,1.50013,0,0,1,1.666,2.4952,29.07765,29.07765,0,0,0-8.038,40.33,1.50011,1.50011,0,0,1-1.2461,2.333Z"/><path class="cls-3" d="M42.749,66.46759a1.49776,1.49776,0,0,1-1.2481-.667,24.43337,24.43337,0,0,1,6.7539-33.8881,1.50012,1.50012,0,0,1,1.6661,2.4951,21.43221,21.43221,0,0,0-5.9258,29.727,1.50011,1.50011,0,0,1-1.2461,2.333Z"/><path class="cls-3" d="M49.1074,62.22349a1.498,1.498,0,0,1-1.2481-.667,16.78907,16.78907,0,0,1,4.6397-23.2861,1.50009,1.50009,0,0,1,1.666,2.4951,13.79037,13.79037,0,0,0-3.8115,19.125,1.50011,1.50011,0,0,1-1.2461,2.333Z"/><path class="cls-3" d="M122.872,91.82409a1.50009,1.50009,0,0,1-.6894-2.833,29.0752,29.0752,0,0,0,12.498-39.1778,1.50005,1.50005,0,1,1,2.666-1.3759,32.07821,32.07821,0,0,1-13.7871,43.2197A1.50185,1.50185,0,0,1,122.872,91.82409Z"/><path class="cls-3" d="M119.3652,85.03209a1.50009,1.50009,0,0,1-.6895-2.833,21.432,21.432,0,0,0,9.212-28.8789,1.50008,1.50008,0,1,1,2.666-1.376,24.43507,24.43507,0,0,1-10.501,32.9209A1.49914,1.49914,0,0,1,119.3652,85.03209Z"/><path class="cls-3" d="M115.8584,78.23909a1.50009,1.50009,0,0,1-.6895-2.833,13.78791,13.78791,0,0,0,5.9268-18.5781,1.50031,1.50031,0,1,1,2.666-1.377,16.80949,16.80949,0,0,1-7.2158,22.6211A1.49914,1.49914,0,0,1,115.8584,78.23909Z"/></g></g></svg>