<svg width="16" height="17" viewBox="0 0 16 17" fill="none" xmlns="http://www.w3.org/2000/svg">
<path fill-rule="evenodd" clip-rule="evenodd" d="M15 17L1 17C0.45 17 -3.93403e-08 16.55 -8.74228e-08 16L-2.62268e-07 14C-3.10351e-07 13.45 0.449999 13 1 13C1.55 13 2 13.45 2 14L2 15L14 15L14 14C14 13.45 14.45 13 15 13C15.55 13 16 13.45 16 14L16 16C16 16.55 15.55 17 15 17ZM11.999 7C12.304 7 12.603 7.138 12.8 7.4C13.132 7.842 13.042 8.469 12.6 8.8L8.6 11.8C8.254 12.06 7.778 12.067 7.425 11.818L3.425 9.004C2.973 8.686 2.864 8.062 3.182 7.611C3.5 7.16 4.123 7.05 4.575 7.368L7.00283 9.0759C7.00096 9.05084 7 9.02553 7 9L7 1C7 0.448001 7.447 7.47727e-07 8 6.99382e-07C8.553 6.51037e-07 9 0.448001 9 1L9 8.99983L11.4 7.2C11.58 7.065 11.79 7 11.999 7Z" fill="black"/>
</svg>
