<svg width="90" height="59" viewBox="0 0 90 59" fill="none" xmlns="http://www.w3.org/2000/svg">
<path d="M6.35885 46.203C3.12318 46.203 0.820312 43.9584 0.820312 41.0434C0.820312 39.4984 1.51992 37.7203 3.06488 36.0296C5.9216 32.8814 15.3954 23.0869 20.0303 17.6067C20.555 16.9945 20.7882 16.5281 20.7882 16.1491C20.7882 15.6827 20.3218 15.4495 19.7971 15.4495C16.474 15.537 9.53622 15.6827 6.388 15.7702C4.75559 15.8576 2.77338 14.9248 2.83168 12.2139C2.83168 10.3774 3.91023 8.59924 6.2131 8.59924C6.30055 8.59924 6.30055 8.59924 6.35885 8.59924C8.89492 8.68669 13.4423 8.74499 17.7566 8.74499C20.759 8.74499 23.6158 8.65754 25.5397 8.65754C25.6271 8.65754 25.6854 8.65754 25.7729 8.65754C29.5624 8.65754 31.3114 10.9021 31.3114 13.4382C31.3114 15.1289 30.5535 16.907 29.1543 18.3646C23.3826 24.3112 15.512 32.8522 11.2852 37.3122C11.052 37.6328 10.8188 38.0118 10.8188 38.3907C10.8188 38.7697 11.1395 39.1486 12.0431 39.1486C16.4448 39.1486 26.0644 39.0029 28.9211 38.828C29.0085 38.828 29.0668 38.828 29.1543 38.828C31.6904 38.828 33.0021 40.6062 33.0021 42.3843C33.0021 44.2208 31.6029 46.1738 28.9211 46.1738C27.9883 46.1738 26.6182 46.1738 24.9858 46.1738C20.6716 46.1738 14.4918 46.1738 10.1775 46.1738C8.63256 46.1738 7.32081 46.1738 6.388 46.1738H6.35885V46.203Z" fill="#69DF77"/>
<path d="M45.3621 17.1695C45.3621 14.6917 43.2924 13.4674 41.281 13.4674C38.9782 13.4674 37.0543 14.8666 37.1126 17.4027C37.2 19.4723 37.2 22.5623 37.2 26.0311C37.2 33.0563 37.1126 35.8547 37.1126 42.2678C37.1126 44.8913 39.1239 46.2031 41.1936 46.2031C43.2633 46.2031 45.3621 44.8913 45.3621 42.2678C45.3621 42.1803 45.3621 42.1803 45.3621 42.122C45.2746 37.8953 45.2163 38.3617 45.2163 33.0563C45.2163 26.585 45.3038 20.4926 45.3621 17.3444C45.3621 17.2569 45.3621 17.2569 45.3621 17.1695ZM41.2227 0C39.0656 0 35.83 1.45751 35.83 5.24704C35.83 8.80336 38.2203 10.7273 41.2227 10.7273C44.5459 10.7273 46.6155 8.04545 46.6155 5.24704C46.6155 2.30287 43.992 0 41.2227 0Z" fill="#69DF77"/>
<path d="M70.5479 8.04541C66.3211 8.04541 62.6774 9.59037 59.8206 12.0681C59.7332 12.1556 59.6749 12.1556 59.5874 12.1556C59.5 12.1556 59.4417 12.0681 59.3542 11.9224C59.0336 9.61952 57.2846 8.36606 55.5064 8.36606C53.4951 8.36606 51.4837 9.82357 51.4837 12.6803C51.4837 19.997 51.6294 34.4846 51.6294 46.1447C51.6294 52.9367 51.6294 51.8581 51.3962 54.6274V55.0064C51.3962 57.6299 53.4076 58.9999 55.4773 58.9999C57.8676 58.9999 59.5 57.3967 59.4125 55.0064C59.3251 51.8581 59.1793 51.3626 59.1793 42.8799C59.1793 42.5884 59.2668 42.4135 59.4125 42.4135C59.5 42.4135 59.6457 42.5592 59.7915 42.6467C62.6482 45.1245 66.2628 46.7277 70.5188 46.7277C81.1586 46.7277 89.1749 38.624 89.1749 27.372C89.204 15.7411 81.1877 8.04541 70.5479 8.04541ZM70.4022 39.7317C67.2831 39.7317 64.4555 38.5074 62.4442 36.3211L56.8765 36.9916L59.6166 30.6368C59.4125 29.6166 59.2959 28.538 59.2959 27.372C59.2959 19.8221 64.2223 15.1872 70.4022 15.1872C76.582 15.1872 81.5084 19.8221 81.5084 27.372C81.5084 35.0093 76.5529 39.7317 70.4022 39.7317Z" fill="#69DF77"/>
<path d="M30.029 49.4093C29.8832 49.2636 29.7083 49.1761 29.4751 49.1761C29.2419 49.1761 29.067 49.2636 28.9213 49.4093C28.7755 49.5551 28.7172 49.7883 28.7172 50.0798V52.2077H25.5107V50.0798C25.5107 49.7883 25.4524 49.5551 25.3066 49.3802C25.1609 49.2344 24.986 49.147 24.7528 49.147C24.5196 49.147 24.3447 49.2344 24.1989 49.3802C24.0532 49.5259 23.9949 49.7591 23.9949 50.0506V55.8807C23.9949 56.1722 24.0532 56.4054 24.1989 56.5511C24.3447 56.6969 24.5196 56.7843 24.7528 56.7843C24.986 56.7843 25.1609 56.6969 25.3066 56.5511C25.4524 56.4054 25.5107 56.1722 25.5107 55.8515V53.3446H28.7464V55.8515C28.7464 56.143 28.8047 56.3762 28.9504 56.522C29.0962 56.6677 29.2711 56.7552 29.5043 56.7552C29.7375 56.7552 29.9124 56.6677 30.0581 56.522C30.2039 56.3762 30.2622 56.143 30.2622 55.8224V49.9923C30.2622 49.7883 30.1747 49.5842 30.029 49.4093Z" fill="#69DF77"/>
<path d="M33.5849 51.4498C33.4683 51.3041 33.2934 51.2458 33.0894 51.2458C32.8853 51.2458 32.7104 51.3041 32.5938 51.4498C32.4772 51.5956 32.3898 51.7996 32.3898 52.062V55.9972C32.3898 56.2596 32.4481 56.4636 32.5938 56.6094C32.7104 56.7551 32.8853 56.8134 33.0894 56.8134C33.2934 56.8134 33.4683 56.7551 33.5849 56.6094C33.7015 56.4636 33.789 56.2596 33.789 55.9681V51.9745C33.7598 51.7996 33.7015 51.5956 33.5849 51.4498ZM33.5558 49.4385C33.41 49.3219 33.2643 49.2635 33.0894 49.2635C32.9145 49.2635 32.7396 49.3218 32.5938 49.4676C32.4481 49.5842 32.3898 49.7591 32.3898 49.934C32.3898 50.1672 32.4481 50.313 32.5938 50.4296C32.7396 50.5462 32.8853 50.6045 33.0894 50.6045C33.2643 50.6045 33.4392 50.5462 33.5849 50.4296C33.7307 50.313 33.789 50.1381 33.789 49.934C33.7598 49.7008 33.7015 49.5551 33.5558 49.4385Z" fill="#69DF77"/>
<path d="M39.1826 51.479C38.9203 51.3332 38.6288 51.2749 38.3372 51.2749C38.0457 51.2749 37.8125 51.3332 37.6376 51.479C37.4627 51.6247 37.2878 51.8288 37.1129 52.1203C37.1129 51.8288 37.0546 51.6247 36.938 51.479C36.8214 51.3332 36.6757 51.2749 36.4425 51.2749C36.0052 51.2749 35.772 51.5956 35.772 52.2077V56.0555C35.772 56.347 35.8303 56.5511 35.9761 56.6968C36.0927 56.8426 36.2676 56.9009 36.4716 56.9009C36.6757 56.9009 36.8506 56.8426 36.9672 56.6968C37.0838 56.5511 37.1712 56.347 37.1712 56.0555V54.8895C37.1712 54.4814 37.2004 54.1316 37.2004 53.8401C37.2295 53.5486 37.2878 53.2863 37.3461 53.0822C37.4044 52.8782 37.521 52.7033 37.6376 52.6158C37.7542 52.4992 37.9291 52.4701 38.1332 52.4701C38.279 52.4701 38.4539 52.4992 38.6579 52.5575C38.862 52.6158 38.9786 52.645 39.0369 52.645C39.1826 52.645 39.2992 52.5867 39.4158 52.4701C39.5324 52.3535 39.5907 52.2369 39.5907 52.062C39.6199 51.7996 39.4741 51.6247 39.1826 51.479Z" fill="#69DF77"/>
<path d="M45.1574 54.9771C45.0408 54.9771 44.9242 55.0062 44.8659 55.0645C44.691 55.2103 44.5453 55.356 44.4578 55.4435C44.3412 55.5309 44.2246 55.6184 44.108 55.7058C43.9914 55.7933 43.8457 55.8516 43.6999 55.8807C43.5542 55.9099 43.4084 55.939 43.2335 55.939C43.0003 55.939 42.7671 55.8807 42.5631 55.7641C42.359 55.6475 42.1841 55.4726 42.0675 55.2103C41.9509 54.977 41.8926 54.6855 41.8926 54.3649H44.6036C44.9534 54.3649 45.2449 54.3066 45.4489 54.2191C45.653 54.1025 45.7404 53.8985 45.7404 53.5487C45.7404 53.1697 45.653 52.7908 45.4489 52.441C45.2449 52.0912 44.9825 51.7997 44.5744 51.5665C44.1955 51.3333 43.7291 51.2167 43.1752 51.2167C42.7671 51.2167 42.3882 51.275 42.0384 51.4207C41.6886 51.5665 41.3971 51.7414 41.193 52.0037C40.9598 52.2369 40.7849 52.5576 40.6683 52.9074C40.5517 53.2572 40.4934 53.6361 40.4934 54.0442C40.4934 54.9187 40.7266 55.5892 41.2222 56.1139C41.7177 56.6386 42.4173 56.8718 43.2918 56.8718C43.6708 56.8718 44.0206 56.8135 44.3121 56.7261C44.6036 56.6386 44.8659 56.4929 45.07 56.3471C45.274 56.2014 45.4198 56.0265 45.5072 55.8516C45.5947 55.6767 45.653 55.5309 45.653 55.4143C45.653 55.2686 45.6238 55.152 45.5364 55.0937C45.4198 55.0062 45.3032 54.9771 45.1574 54.9771ZM42.2716 52.5576C42.5048 52.3244 42.7671 52.2078 43.1169 52.2078C43.4667 52.2078 43.7582 52.3244 43.9914 52.5576C44.2246 52.7908 44.3412 53.1406 44.3704 53.607H41.8635C41.9218 53.1406 42.0675 52.7908 42.2716 52.5576Z" fill="#69DF77"/>
</svg>
