<svg width="89" height="89" viewBox="0 0 89 89" fill="none" xmlns="http://www.w3.org/2000/svg">
<rect width="89" height="89" rx="16" fill="#006241"/>
<path d="M16.3083 56.5852C13.9671 56.5852 12.3008 54.9611 12.3008 52.8518C12.3008 51.7339 12.807 50.4473 13.9249 49.2239C15.992 46.946 22.847 39.8589 26.2007 35.8935C26.5803 35.4506 26.7491 35.1131 26.7491 34.8389C26.7491 34.5014 26.4116 34.3327 26.0319 34.3327C23.6274 34.396 18.6074 34.5014 16.3294 34.5647C15.1483 34.628 13.714 33.953 13.7562 31.9914C13.7562 30.6626 14.5366 29.376 16.2029 29.376C16.2662 29.376 16.2662 29.376 16.3083 29.376C18.1434 29.4393 21.4338 29.4814 24.5555 29.4814C26.728 29.4814 28.7951 29.4182 30.1871 29.4182C30.2504 29.4182 30.2926 29.4182 30.3559 29.4182C33.0979 29.4182 34.3634 31.0423 34.3634 32.8773C34.3634 34.1007 33.815 35.3873 32.8026 36.4419C28.6263 40.7448 22.9314 46.9249 19.873 50.152C19.7042 50.384 19.5355 50.6582 19.5355 50.9324C19.5355 51.2066 19.7675 51.4808 20.4214 51.4808C23.6063 51.4808 30.5668 51.3754 32.6339 51.2488C32.6971 51.2488 32.7393 51.2488 32.8026 51.2488C34.6376 51.2488 35.5868 52.5354 35.5868 53.8221C35.5868 55.1509 34.5744 56.5641 32.6339 56.5641C31.9589 56.5641 30.9676 56.5641 29.7864 56.5641C26.6647 56.5641 22.1931 56.5641 19.0714 56.5641C17.9535 56.5641 17.0044 56.5641 16.3294 56.5641H16.3083V56.5852Z" fill="#69DF77"/>
<path d="M44.5291 35.5777C44.5291 33.7849 43.0315 32.899 41.5761 32.899C39.9098 32.899 38.5177 33.9114 38.5599 35.7465C38.6232 37.244 38.6232 39.4798 38.6232 41.9898C38.6232 47.0731 38.5599 49.098 38.5599 53.7383C38.5599 55.6366 40.0153 56.5858 41.5128 56.5858C43.0104 56.5858 44.5291 55.6366 44.5291 53.7383C44.5291 53.675 44.5291 53.675 44.5291 53.6328C44.4658 50.5744 44.4236 50.9119 44.4236 47.0731C44.4236 42.3906 44.4869 37.9823 44.5291 35.7043C44.5291 35.641 44.5291 35.641 44.5291 35.5777ZM41.5339 23.1543C39.9731 23.1543 37.6318 24.2089 37.6318 26.9509C37.6318 29.5242 39.3614 30.9163 41.5339 30.9163C43.9385 30.9163 45.436 28.9758 45.436 26.9509C45.436 24.8206 43.5377 23.1543 41.5339 23.1543Z" fill="#69DF77"/>
<path d="M62.7527 28.9756C59.6943 28.9756 57.0578 30.0935 54.9907 31.8863C54.9274 31.9496 54.8853 31.9496 54.822 31.9496C54.7587 31.9496 54.7165 31.8863 54.6532 31.7809C54.4212 30.1146 53.1557 29.2076 51.8691 29.2076C50.4137 29.2076 48.9583 30.2622 48.9583 32.3293C48.9583 37.6235 49.0638 48.1064 49.0638 56.5434C49.0638 61.4579 49.0638 60.6775 48.895 62.6813V62.9555C48.895 64.8538 50.3504 65.8451 51.848 65.8451C53.5775 65.8451 54.7587 64.685 54.6954 62.9555C54.6322 60.6775 54.5267 60.3189 54.5267 54.181C54.5267 53.9701 54.59 53.8435 54.6954 53.8435C54.7587 53.8435 54.8642 53.949 54.9696 54.0123C57.0367 55.8051 59.6522 56.9652 62.7316 56.9652C70.4304 56.9652 76.2308 51.1015 76.2308 42.9599C76.2519 34.544 70.4515 28.9756 62.7527 28.9756ZM62.6473 51.903C60.3904 51.903 58.3444 51.0172 56.889 49.4352L52.8604 49.9204L54.8431 45.3222C54.6954 44.584 54.6111 43.8036 54.6111 42.9599C54.6111 37.4969 58.1757 34.1432 62.6473 34.1432C67.1189 34.1432 70.6835 37.4969 70.6835 42.9599C70.6835 48.4861 67.0978 51.903 62.6473 51.903Z" fill="#69DF77"/>
<path d="M33.4364 58.9057C33.331 58.8002 33.2044 58.7369 33.0357 58.7369C32.8669 58.7369 32.7404 58.8002 32.6349 58.9057C32.5295 59.0111 32.4873 59.1799 32.4873 59.3908V60.9305H30.1671V59.3908C30.1671 59.1799 30.1249 59.0111 30.0195 58.8846C29.914 58.7791 29.7875 58.7158 29.6187 58.7158C29.45 58.7158 29.3234 58.7791 29.218 58.8846C29.1125 58.99 29.0703 59.1588 29.0703 59.3697V63.5882C29.0703 63.7991 29.1125 63.9678 29.218 64.0733C29.3234 64.1788 29.45 64.242 29.6187 64.242C29.7875 64.242 29.914 64.1788 30.0195 64.0733C30.1249 63.9678 30.1671 63.7991 30.1671 63.5671V61.7531H32.5084V63.5671C32.5084 63.778 32.5506 63.9467 32.656 64.0522C32.7615 64.1577 32.888 64.2209 33.0568 64.2209C33.2255 64.2209 33.3521 64.1577 33.4575 64.0522C33.563 63.9467 33.6052 63.778 33.6052 63.546V59.3275C33.6052 59.1799 33.5419 59.0322 33.4364 58.9057Z" fill="#69DF77"/>
<path d="M36.0093 60.3827C35.925 60.2773 35.7984 60.2351 35.6507 60.2351C35.5031 60.2351 35.3765 60.2773 35.2922 60.3827C35.2078 60.4882 35.1445 60.6358 35.1445 60.8257V63.6731C35.1445 63.863 35.1867 64.0106 35.2922 64.1161C35.3765 64.2215 35.5031 64.2637 35.6507 64.2637C35.7984 64.2637 35.925 64.2215 36.0093 64.1161C36.0937 64.0106 36.157 63.863 36.157 63.652V60.7624C36.1359 60.6358 36.0937 60.4882 36.0093 60.3827ZM35.9882 58.9273C35.8828 58.843 35.7773 58.8008 35.6507 58.8008C35.5242 58.8008 35.3976 58.843 35.2922 58.9484C35.1867 59.0328 35.1445 59.1594 35.1445 59.2859C35.1445 59.4546 35.1867 59.5601 35.2922 59.6445C35.3976 59.7288 35.5031 59.771 35.6507 59.771C35.7773 59.771 35.9039 59.7288 36.0093 59.6445C36.1148 59.5601 36.157 59.4336 36.157 59.2859C36.1359 59.1172 36.0937 59.0117 35.9882 58.9273Z" fill="#69DF77"/>
<path d="M40.0601 60.4035C39.8703 60.298 39.6593 60.2559 39.4484 60.2559C39.2375 60.2559 39.0688 60.298 38.9422 60.4035C38.8156 60.509 38.6891 60.6566 38.5625 60.8675C38.5625 60.6566 38.5204 60.509 38.436 60.4035C38.3516 60.298 38.2461 60.2559 38.0774 60.2559C37.761 60.2559 37.5923 60.4879 37.5923 60.9308V63.715C37.5923 63.9259 37.6345 64.0736 37.7399 64.179C37.8243 64.2845 37.9509 64.3267 38.0985 64.3267C38.2462 64.3267 38.3727 64.2845 38.4571 64.179C38.5414 64.0736 38.6047 63.9259 38.6047 63.715V62.8713C38.6047 62.576 38.6258 62.3229 38.6258 62.112C38.6469 61.9011 38.6891 61.7112 38.7313 61.5636C38.7735 61.4159 38.8578 61.2894 38.9422 61.2261C39.0266 61.1417 39.1531 61.1206 39.3008 61.1206C39.4062 61.1206 39.5328 61.1417 39.6804 61.1839C39.8281 61.2261 39.9125 61.2472 39.9546 61.2472C40.0601 61.2472 40.1445 61.205 40.2288 61.1206C40.3132 61.0363 40.3554 60.9519 40.3554 60.8254C40.3765 60.6355 40.271 60.509 40.0601 60.4035Z" fill="#69DF77"/>
<path d="M44.3841 62.9338C44.2997 62.9338 44.2153 62.9549 44.1731 62.9971C44.0466 63.1026 43.9411 63.208 43.8778 63.2713C43.7935 63.3346 43.7091 63.3978 43.6247 63.4611C43.5404 63.5244 43.4349 63.5666 43.3294 63.5877C43.224 63.6088 43.1185 63.6299 42.992 63.6299C42.8232 63.6299 42.6545 63.5877 42.5068 63.5033C42.3592 63.4189 42.2326 63.2924 42.1483 63.1026C42.0639 62.9338 42.0217 62.7229 42.0217 62.4909H43.9833C44.2364 62.4909 44.4473 62.4487 44.595 62.3854C44.7426 62.301 44.8059 62.1534 44.8059 61.9003C44.8059 61.6261 44.7426 61.3519 44.595 61.0988C44.4473 60.8457 44.2575 60.6347 43.9622 60.466C43.688 60.2973 43.3505 60.2129 42.9498 60.2129C42.6545 60.2129 42.3803 60.2551 42.1272 60.3605C41.8741 60.466 41.6631 60.5926 41.5155 60.7824C41.3468 60.9511 41.2202 61.1831 41.1358 61.4363C41.0515 61.6894 41.0093 61.9636 41.0093 62.2589C41.0093 62.8916 41.178 63.3768 41.5366 63.7564C41.8952 64.1361 42.4014 64.3048 43.0341 64.3048C43.3083 64.3048 43.5615 64.2626 43.7724 64.1994C43.9833 64.1361 44.1731 64.0306 44.3208 63.9252C44.4684 63.8197 44.5739 63.6931 44.6372 63.5666C44.7004 63.44 44.7426 63.3346 44.7426 63.2502C44.7426 63.1447 44.7215 63.0604 44.6583 63.0182C44.5739 62.9549 44.4895 62.9338 44.3841 62.9338ZM42.2959 61.1831C42.4647 61.0144 42.6545 60.93 42.9076 60.93C43.1607 60.93 43.3716 61.0144 43.5404 61.1831C43.7091 61.3519 43.7935 61.605 43.8146 61.9425H42.0006C42.0428 61.605 42.1483 61.3519 42.2959 61.1831Z" fill="#69DF77"/>
</svg>
