<svg width="30" height="30" viewBox="0 0 30 30" fill="none" xmlns="http://www.w3.org/2000/svg">
<path fill="#1FFFA5" d="M23.2941 3.74298C24.3706 3.74298 25.403 4.17061 26.1641 4.93178C26.9253 5.69296 27.3529 6.72534 27.3529 7.8018V18.6253C27.3529 19.7018 26.9253 20.7342 26.1641 21.4954C25.403 22.2565 24.3706 22.6842 23.2941 22.6842H16.5294L9.76471 26.743V22.6842H7.05882C5.98236 22.6842 4.94998 22.2565 4.1888 21.4954C3.42762 20.7342 3 19.7018 3 18.6253V7.8018C3 6.72534 3.42762 5.69296 4.1888 4.93178C4.94998 4.17061 5.98236 3.74298 7.05882 3.74298H23.2941Z" stroke="#0A0A0A" stroke-width="1.7" stroke-linecap="round" stroke-linejoin="round"/>
<circle cx="12" cy="10.743" r="1" fill="#0A0A0A"/>
<circle cx="18" cy="10.743" r="1" fill="#0A0A0A"/>
<path d="M11.7941 15.9194C12.235 16.3694 12.7612 16.7269 13.342 16.971C13.9228 17.215 14.5465 17.3407 15.1765 17.3407C15.8064 17.3407 16.4301 17.215 17.0109 16.971C17.5917 16.7269 18.1179 16.3694 18.5588 15.9194" stroke="#0A0A0A" stroke-width="1.7" stroke-linecap="round" stroke-linejoin="round"/>
</svg>
