 <svg width="30" height="30" viewBox="0 0 30 30" fill="none" xmlns="http://www.w3.org/2000/svg">
<g clip-path="url(#clip0_112_630)">
<circle fill="#1FFFA5" cx="19.25" cy="19.25" r="8.5" stroke="#0A0A0A" stroke-width="1.5"/>
<path fill="#1FFFA5" d="M11 2.24994C15.4686 2.24994 19.1319 5.69823 19.4739 10.079C14.4951 10.7849 10.9061 14.9352 10.3216 19.2233C5.94435 18.8776 2.5 15.216 2.5 10.7499C2.5 6.05552 6.30558 2.24994 11 2.24994Z" stroke="#0A0A0A" stroke-width="1.5"/>
<path d="M10.0088 5.28755L9.86003 4.04755C8.23981 4.24329 6.74885 5.03018 5.67299 6.25736C4.59713 7.48454 4.01209 9.06564 4.03003 10.6975C4.03253 10.8888 4.04253 11.0763 4.06003 11.26L5.30378 11.1438C5.28963 10.9913 5.28171 10.8382 5.28003 10.685C5.26489 9.36086 5.73913 8.07769 6.61179 7.08162C7.48445 6.08554 8.69411 5.44668 10.0088 5.28755ZM14.055 19.8938C14.0405 19.7413 14.0321 19.5882 14.03 19.435C14.0149 18.1109 14.4891 16.8277 15.3618 15.8316C16.2344 14.8355 17.4441 14.1967 18.7588 14.0375L18.61 12.7975C16.9898 12.9933 15.4988 13.7802 14.423 15.0074C13.3471 16.2345 12.7621 17.8156 12.78 19.4475C12.7825 19.6388 12.7925 19.8263 12.81 20.01L14.055 19.8938ZM24.09 14.69L23.2063 15.5738C23.7055 16.073 24.1014 16.6656 24.3716 17.3178C24.6418 17.97 24.7808 18.6691 24.7808 19.375C24.7808 20.081 24.6418 20.78 24.3716 21.4323C24.1014 22.0845 23.7055 22.6771 23.2063 23.1763C22.7071 23.6755 22.1145 24.0715 21.4623 24.3416C20.81 24.6118 20.111 24.7508 19.405 24.7508C18.6991 24.7508 18 24.6118 17.3478 24.3416C16.6956 24.0715 16.103 23.6755 15.6038 23.1763L14.72 24.06C15.9626 25.3026 17.6478 26.0006 19.405 26.0006C20.2751 26.0006 21.1367 25.8293 21.9405 25.4963C22.7444 25.1633 23.4748 24.6753 24.09 24.06C24.7053 23.4448 25.1933 22.7144 25.5263 21.9105C25.8592 21.1067 26.0306 20.2451 26.0306 19.375C26.0306 18.505 25.8592 17.6434 25.5263 16.8395C25.1933 16.0357 24.7053 15.3053 24.09 14.69Z" fill="#0A0A0A"/>
</g>
<defs>
<clipPath id="clip0_112_630">
<rect width="30" height="30" fill="white"/>
</clipPath>
</defs>
</svg>
