<svg width="30" height="30" viewBox="0 0 30 30" fill="none" xmlns="http://www.w3.org/2000/svg">
<path d="M3.95 8.75C3.95 7.14544 4.58741 5.6066 5.722 4.472C6.8566 3.33741 8.39544 2.7 10 2.7H16.25C16.5285 2.7 16.7955 2.81062 16.9925 3.00754C17.1894 3.20445 17.3 3.47152 17.3 3.75C17.3 4.02848 17.1894 4.29555 16.9925 4.49246C16.7955 4.68938 16.5285 4.8 16.25 4.8H10C8.95239 4.8 7.9477 5.21616 7.20693 5.95693C6.46616 6.6977 6.05 7.70239 6.05 8.75V21.25C6.05 22.2976 6.46616 23.3023 7.20693 24.0431C7.9477 24.7838 8.95239 25.2 10 25.2H16.25C16.5285 25.2 16.7955 25.3106 16.9925 25.5075C17.1894 25.7045 17.3 25.9715 17.3 26.25C17.3 26.5285 17.1894 26.7955 16.9925 26.9925C16.7955 27.1894 16.5285 27.3 16.25 27.3H10C8.39544 27.3 6.8566 26.6626 5.722 25.528C4.58741 24.3934 3.95 22.8546 3.95 21.25V8.75Z" fill="#FF355B" stroke="white" stroke-width="0.4"/>
<path d="M25.855 14.7125L19.855 9.0875L25.855 14.7125ZM25.855 14.7125C25.9799 14.8294 26.0794 14.9707 26.1475 15.1277C26.2156 15.2847 26.2507 15.4539 26.2507 15.625C26.2507 15.7961 26.2156 15.9653 26.1475 16.1223C26.0794 16.2793 25.9799 16.4206 25.855 16.5375V14.7125ZM18.2334 9.2818L18.2335 9.28169C18.3278 9.18099 18.441 9.09985 18.5666 9.04291C18.6923 8.98598 18.828 8.95437 18.9658 8.94988C19.1037 8.9454 19.2411 8.96813 19.3702 9.01677C19.4993 9.06542 19.6176 9.13903 19.7182 9.23339L19.7182 9.2334L25.7182 14.8584L25.7183 14.8585C25.8232 14.9567 25.9068 15.0754 25.964 15.2073C26.0212 15.3391 26.0507 15.4813 26.0507 15.625C26.0507 15.7687 26.0212 15.9109 25.964 16.0427C25.9068 16.1746 25.8232 16.2933 25.7183 16.3915L25.7182 16.3916L19.7183 22.0166C19.7182 22.0166 19.7182 22.0166 19.7182 22.0166C19.6176 22.1109 19.4993 22.1845 19.3702 22.2331C19.2411 22.2817 19.1037 22.3044 18.9658 22.2999C18.828 22.2954 18.6923 22.2638 18.5667 22.2069C18.441 22.15 18.3278 22.0689 18.2334 21.9682C18.1391 21.8676 18.0655 21.7493 18.0169 21.6202C17.9683 21.4911 17.9456 21.3537 17.9501 21.2158C17.9546 21.078 17.9862 20.9423 18.0431 20.8167C18.1 20.691 18.1811 20.5778 18.2817 20.4834L18.2818 20.4834L21.9755 17.0209L22.3445 16.675H21.8387H10C9.72152 16.675 9.45445 16.5644 9.25754 16.3675C9.06062 16.1705 8.95 15.9035 8.95 15.625C8.95 15.3465 9.06062 15.0794 9.25754 14.8825C9.45445 14.6856 9.72152 14.575 10 14.575H21.8387H22.3445L21.9755 14.2291L18.2818 10.7666L18.2817 10.7665C18.181 10.6722 18.0998 10.559 18.0429 10.4333L17.8607 10.5159L18.0429 10.4333C17.986 10.3077 17.9544 10.172 17.9499 10.0342C17.9454 9.89628 17.9681 9.75886 18.0168 9.62977C18.0654 9.50068 18.139 9.38243 18.2334 9.2818Z" fill="#FF355B" stroke="white" stroke-width="0.4"/>
</svg>
