<svg width="30" height="30" viewBox="0 0 30 30" fill="none" xmlns="http://www.w3.org/2000/svg">
<path d="M3.75 12.5C3.75 7.78625 3.75 5.42875 5.215 3.965C6.68 2.50125 9.03625 2.5 13.75 2.5H16.25C20.9637 2.5 23.3212 2.5 24.785 3.965C26.2487 5.43 26.25 7.78625 26.25 12.5V17.5C26.25 22.2137 26.25 24.5712 24.785 26.035C23.32 27.4987 20.9637 27.5 16.25 27.5H13.75C9.03625 27.5 6.67875 27.5 5.215 26.035C3.75125 24.57 3.75 22.2137 3.75 17.5V12.5Z" stroke="#0A0A0A" stroke-width="1.7"/>
<path d="M10 12.5H20M10 17.5H16.25" stroke="#0A0A0A" stroke-width="1.7" stroke-linecap="round"/>
</svg>
