 <svg width="30" height="30" viewBox="0 0 30 30" fill="none" xmlns="http://www.w3.org/2000/svg">
<path d="M3 5.37155L5.62857 8.00012L10.8857 2.74298" stroke="#0A0A0A" stroke-width="1.5" stroke-linecap="round" stroke-linejoin="round"/>
<path d="M3 14.6287L5.62857 17.2573L10.8857 12.0001" stroke="#0A0A0A" stroke-width="1.5" stroke-linecap="round" stroke-linejoin="round"/>
<path d="M3 23.8858L5.62857 26.5144L10.8857 21.2573" stroke="#0A0A0A" stroke-width="1.5" stroke-linecap="round" stroke-linejoin="round"/>
<path fill="#1FFFA5" d="M14.8857 5.37157C14.8857 4.28072 15.7663 3.40015 16.8572 3.40015H24.7429C25.8337 3.40015 26.7143 4.28072 26.7143 5.37157C26.7143 6.46243 25.8337 7.343 24.7429 7.343H16.8572C15.7663 7.343 14.8857 6.46243 14.8857 5.37157Z" stroke="#0A0A0A" stroke-width="1.5" stroke-linecap="round" stroke-linejoin="round"/>
<path fill="#1FFFA5" d="M14.8858 14.5716C14.8858 13.4807 15.7663 12.6001 16.8572 12.6001H24.7429C25.8338 12.6001 26.7143 13.4807 26.7143 14.5716C26.7143 15.6624 25.8338 16.543 24.7429 16.543H16.8572C15.7663 16.543 14.8858 15.6624 14.8858 14.5716Z" stroke="#0A0A0A" stroke-width="1.5" stroke-linecap="round" stroke-linejoin="round"/>
<path fill="#1FFFA5" d="M14.8858 23.7716C14.8858 22.6807 15.7663 21.8001 16.8572 21.8001H24.7429C25.8338 21.8001 26.7143 22.6807 26.7143 23.7716C26.7143 24.8624 25.8338 25.743 24.7429 25.743H16.8572C15.7663 25.743 14.8858 24.8624 14.8858 23.7716Z" stroke="#0A0A0A" stroke-width="1.5" stroke-linecap="round" stroke-linejoin="round"/>
</svg>
